<svg width="68" height="68" viewBox="0 0 68 68" fill="none" xmlns="http://www.w3.org/2000/svg">
<g clip-path="url(#clip0_434_393)">
<path d="M60.9167 11.3333H7.08334C6.51989 11.3136 5.9584 11.4099 5.43382 11.6165C4.90923 11.8231 4.43278 12.1355 4.03411 12.5341C3.63545 12.9328 3.32311 13.4092 3.11653 13.9338C2.90995 14.4584 2.81355 15.0199 2.83334 15.5833V52.4167C2.81355 52.9801 2.90995 53.5416 3.11653 54.0662C3.32311 54.5908 3.63545 55.0672 4.03411 55.4659C4.43278 55.8646 4.90923 56.1769 5.43382 56.3835C5.9584 56.5901 6.51989 56.6865 7.08334 56.6667H60.9167C61.4801 56.6865 62.0416 56.5901 62.5662 56.3835C63.0908 56.1769 63.5672 55.8646 63.9659 55.4659C64.3646 55.0672 64.6769 54.5908 64.8835 54.0662C65.0901 53.5416 65.1865 52.9801 65.1667 52.4167V15.5833C65.1865 15.0199 65.0901 14.4584 64.8835 13.9338C64.6769 13.4092 64.3646 12.9328 63.9659 12.5341C63.5672 12.1355 63.0908 11.8231 62.5662 11.6165C62.0416 11.4099 61.4801 11.3136 60.9167 11.3333ZM59.5 51H8.50001V17H59.5V51Z" fill="#3F3C3C"/>
<path d="M43.35 40.9417H46.75L47.175 40.6583C47.6 39.6667 47.7417 38.9583 47.8833 38.8167H52.7C52.9086 39.4132 53.0511 40.0308 53.125 40.6583L53.55 40.9417H56.2417C56.3833 40.9417 56.525 40.9417 56.525 40.8C56.5763 40.7425 56.6153 40.6752 56.6396 40.6021C56.664 40.529 56.6732 40.4518 56.6667 40.375L53.6917 27.2C53.6917 26.9167 53.55 26.775 53.4083 26.775H50.7167C50.2932 26.7474 49.872 26.8563 49.515 27.0858C49.158 27.3153 48.884 27.6533 48.7333 28.05L43.35 40.375C43.2083 40.6583 43.35 40.8 43.35 40.9417ZM51 30.7417L51.2833 32.0167L52.1333 36.125H49.0167L51 30.7417Z" fill="#3F3C3C"/>
<path d="M33.0083 40.375C34.1993 40.7733 35.4379 41.0115 36.6917 41.0833C40.6583 41.0833 43.0667 39.2417 43.2083 36.4083C43.35 33.575 42.2167 33.575 40.0917 32.725C37.9667 31.875 37.9667 31.5917 37.9667 31.025C37.9667 30.4583 38.675 29.75 40.0917 29.75H40.2333C41.0731 29.7119 41.907 29.9081 42.6417 30.3167H43.0667C43.2083 30.3167 43.2083 30.175 43.2083 30.0333L43.6333 28.05C43.6333 27.94 43.6077 27.8316 43.5586 27.7332C43.5094 27.6349 43.438 27.5493 43.35 27.4833C42.3773 27.231 41.3794 27.0885 40.375 27.0583C36.6917 27.0583 34.1417 28.9 34.1417 31.5917C34.1417 34.2833 35.9833 34.7083 37.4 35.275C38.8167 35.8417 39.2417 36.4083 39.2417 36.975C39.2417 37.5417 38.1083 38.3917 37.1167 38.3917C35.9454 38.405 34.7852 38.1633 33.7167 37.6833C33.6901 37.6532 33.6574 37.629 33.6207 37.6125C33.5841 37.596 33.5444 37.5874 33.5042 37.5874C33.464 37.5874 33.4242 37.596 33.3876 37.6125C33.351 37.629 33.3183 37.6532 33.2917 37.6833C33.15 37.6833 33.15 37.825 33.0083 37.9667L32.725 40.0917C32.725 40.0917 32.725 40.375 33.0083 40.375Z" fill="#3F3C3C"/>
<path d="M11.6167 27.7667C13.9107 28.5429 15.929 29.9705 17.425 31.875H17.85C18.1333 31.7333 18.1333 31.5917 18.1333 31.3083L17.425 27.9083C17.3256 27.5464 17.099 27.2324 16.7866 27.0242C16.4743 26.816 16.0973 26.7275 15.725 26.775H11.7583C11.6456 26.775 11.5375 26.8198 11.4578 26.8995C11.3781 26.9792 11.3333 27.0873 11.3333 27.2L11.6167 27.7667Z" fill="#3F3C3C"/>
<path d="M26.35 40.9417H29.75C29.8917 40.9417 30.0333 40.8 30.0333 40.5167L32.3 27.3417V26.9167H29.0417C28.929 26.9167 28.8209 26.9614 28.7412 27.0412C28.6614 27.1209 28.6167 27.229 28.6167 27.3417L26.35 40.5167V40.9417Z" fill="#3F3C3C"/>
<path d="M14.5917 30.0333H14.1667C14.025 30.0333 13.8833 30.3167 13.8833 30.4583L16.8583 40.8L17.2833 41.0833H20.825C20.9001 41.0833 20.9722 41.0535 21.0253 41.0004C21.0785 40.9472 21.1083 40.8751 21.1083 40.8L26.775 27.4833C26.9167 27.4833 26.9167 27.2 26.775 27.2C26.6333 27.2 26.6333 26.9167 26.4917 26.9167H23.375C23.0917 26.9167 22.95 27.0583 22.95 27.2L19.2667 36.55L18.8417 35.1333C17.84 33.1265 16.3849 31.3805 14.5917 30.0333Z" fill="#3F3C3C"/>
</g>
<defs>
<clipPath id="clip0_434_393">
<rect width="68" height="68" fill="white"/>
</clipPath>
</defs>
</svg>
