<svg width="87" height="23" viewBox="0 0 87 23" fill="none" xmlns="http://www.w3.org/2000/svg">
<path d="M9.60009 18.24C8.28809 18.24 7.08009 18.032 5.97609 17.616C4.88809 17.184 3.93609 16.584 3.12009 15.816C2.30409 15.032 1.67209 14.112 1.22409 13.056C0.776094 12 0.552094 10.848 0.552094 9.6C0.552094 8.352 0.776094 7.2 1.22409 6.144C1.67209 5.088 2.30409 4.176 3.12009 3.408C3.95209 2.624 4.92009 2.024 6.02409 1.608C7.12809 1.176 8.33609 0.959999 9.64809 0.959999C11.0721 0.959999 12.3521 1.192 13.4881 1.656C14.6401 2.12 15.6081 2.8 16.3921 3.696L14.4241 5.616C13.7681 4.96 13.0561 4.48 12.2881 4.176C11.5361 3.856 10.7041 3.696 9.79209 3.696C8.91209 3.696 8.09609 3.84 7.34409 4.128C6.59209 4.416 5.94409 4.824 5.40009 5.352C4.85609 5.88 4.43209 6.504 4.12809 7.224C3.84009 7.944 3.69609 8.736 3.69609 9.6C3.69609 10.448 3.84009 11.232 4.12809 11.952C4.43209 12.672 4.85609 13.304 5.40009 13.848C5.94409 14.376 6.58409 14.784 7.32009 15.072C8.05609 15.36 8.87209 15.504 9.76809 15.504C10.6001 15.504 11.4001 15.376 12.1681 15.12C12.9521 14.848 13.6961 14.4 14.4001 13.776L16.1761 16.104C15.2961 16.808 14.2721 17.344 13.1041 17.712C11.9521 18.064 10.7841 18.24 9.60009 18.24ZM13.2241 15.696V9.408H16.1761V16.104L13.2241 15.696ZM25.7632 18.168C24.4512 18.168 23.2832 17.888 22.2592 17.328C21.2352 16.752 20.4272 15.968 19.8352 14.976C19.2432 13.984 18.9472 12.856 18.9472 11.592C18.9472 10.312 19.2432 9.184 19.8352 8.208C20.4272 7.216 21.2352 6.44 22.2592 5.88C23.2832 5.32 24.4512 5.04 25.7632 5.04C27.0912 5.04 28.2672 5.32 29.2912 5.88C30.3312 6.44 31.1392 7.208 31.7152 8.184C32.3072 9.16 32.6032 10.296 32.6032 11.592C32.6032 12.856 32.3072 13.984 31.7152 14.976C31.1392 15.968 30.3312 16.752 29.2912 17.328C28.2672 17.888 27.0912 18.168 25.7632 18.168ZM25.7632 15.6C26.4992 15.6 27.1552 15.44 27.7312 15.12C28.3072 14.8 28.7552 14.336 29.0752 13.728C29.4112 13.12 29.5792 12.408 29.5792 11.592C29.5792 10.76 29.4112 10.048 29.0752 9.456C28.7552 8.848 28.3072 8.384 27.7312 8.064C27.1552 7.744 26.5072 7.584 25.7872 7.584C25.0512 7.584 24.3952 7.744 23.8192 8.064C23.2592 8.384 22.8112 8.848 22.4752 9.456C22.1392 10.048 21.9712 10.76 21.9712 11.592C21.9712 12.408 22.1392 13.12 22.4752 13.728C22.8112 14.336 23.2592 14.8 23.8192 15.12C24.3952 15.44 25.0432 15.6 25.7632 15.6ZM41.2319 18.168C39.9199 18.168 38.7519 17.888 37.7279 17.328C36.7039 16.752 35.8959 15.968 35.3039 14.976C34.7119 13.984 34.4159 12.856 34.4159 11.592C34.4159 10.312 34.7119 9.184 35.3039 8.208C35.8959 7.216 36.7039 6.44 37.7279 5.88C38.7519 5.32 39.9199 5.04 41.2319 5.04C42.5599 5.04 43.7359 5.32 44.7599 5.88C45.7999 6.44 46.6079 7.208 47.1839 8.184C47.7759 9.16 48.0719 10.296 48.0719 11.592C48.0719 12.856 47.7759 13.984 47.1839 14.976C46.6079 15.968 45.7999 16.752 44.7599 17.328C43.7359 17.888 42.5599 18.168 41.2319 18.168ZM41.2319 15.6C41.9679 15.6 42.6239 15.44 43.1999 15.12C43.7759 14.8 44.2239 14.336 44.5439 13.728C44.8799 13.12 45.0479 12.408 45.0479 11.592C45.0479 10.76 44.8799 10.048 44.5439 9.456C44.2239 8.848 43.7759 8.384 43.1999 8.064C42.6239 7.744 41.9759 7.584 41.2559 7.584C40.5199 7.584 39.8639 7.744 39.2879 8.064C38.7279 8.384 38.2799 8.848 37.9439 9.456C37.6079 10.048 37.4399 10.76 37.4399 11.592C37.4399 12.408 37.6079 13.12 37.9439 13.728C38.2799 14.336 38.7279 14.8 39.2879 15.12C39.8639 15.44 40.5119 15.6 41.2319 15.6ZM56.7487 22.824C55.5647 22.824 54.4047 22.664 53.2687 22.344C52.1487 22.04 51.2287 21.592 50.5087 21L51.8527 18.744C52.4127 19.208 53.1167 19.576 53.9647 19.848C54.8287 20.136 55.7007 20.28 56.5807 20.28C57.9887 20.28 59.0207 19.952 59.6767 19.296C60.3327 18.656 60.6607 17.688 60.6607 16.392V14.112L60.9007 11.208L60.8047 8.304V5.184H63.6607V16.056C63.6607 18.376 63.0687 20.08 61.8847 21.168C60.7007 22.272 58.9887 22.824 56.7487 22.824ZM56.3647 17.424C55.1487 17.424 54.0447 17.168 53.0527 16.656C52.0767 16.128 51.3007 15.4 50.7247 14.472C50.1647 13.544 49.8847 12.456 49.8847 11.208C49.8847 9.976 50.1647 8.896 50.7247 7.968C51.3007 7.04 52.0767 6.32 53.0527 5.808C54.0447 5.296 55.1487 5.04 56.3647 5.04C57.4527 5.04 58.4287 5.256 59.2927 5.688C60.1567 6.12 60.8447 6.792 61.3567 7.704C61.8847 8.616 62.1487 9.784 62.1487 11.208C62.1487 12.632 61.8847 13.808 61.3567 14.736C60.8447 15.648 60.1567 16.328 59.2927 16.776C58.4287 17.208 57.4527 17.424 56.3647 17.424ZM56.8207 14.88C57.5727 14.88 58.2447 14.728 58.8367 14.424C59.4287 14.104 59.8847 13.672 60.2047 13.128C60.5407 12.568 60.7087 11.928 60.7087 11.208C60.7087 10.488 60.5407 9.856 60.2047 9.312C59.8847 8.752 59.4287 8.328 58.8367 8.04C58.2447 7.736 57.5727 7.584 56.8207 7.584C56.0687 7.584 55.3887 7.736 54.7807 8.04C54.1887 8.328 53.7247 8.752 53.3887 9.312C53.0687 9.856 52.9087 10.488 52.9087 11.208C52.9087 11.928 53.0687 12.568 53.3887 13.128C53.7247 13.672 54.1887 14.104 54.7807 14.424C55.3887 14.728 56.0687 14.88 56.8207 14.88ZM67.6047 18V0.191999H70.6047V18H67.6047ZM80.5662 18.168C79.1422 18.168 77.8942 17.888 76.8222 17.328C75.7662 16.752 74.9422 15.968 74.3502 14.976C73.7742 13.984 73.4862 12.856 73.4862 11.592C73.4862 10.312 73.7662 9.184 74.3262 8.208C74.9022 7.216 75.6862 6.44 76.6782 5.88C77.6862 5.32 78.8302 5.04 80.1102 5.04C81.3582 5.04 82.4702 5.312 83.4462 5.856C84.4222 6.4 85.1902 7.168 85.7502 8.16C86.3102 9.152 86.5902 10.32 86.5902 11.664C86.5902 11.792 86.5822 11.936 86.5662 12.096C86.5662 12.256 86.5582 12.408 86.5422 12.552H75.8622V10.56H84.9582L83.7822 11.184C83.7982 10.448 83.6462 9.8 83.3262 9.24C83.0062 8.68 82.5662 8.24 82.0062 7.92C81.4622 7.6 80.8302 7.44 80.1102 7.44C79.3742 7.44 78.7262 7.6 78.1662 7.92C77.6222 8.24 77.1902 8.688 76.8702 9.264C76.5662 9.824 76.4142 10.488 76.4142 11.256V11.736C76.4142 12.504 76.5902 13.184 76.9422 13.776C77.2942 14.368 77.7902 14.824 78.4302 15.144C79.0702 15.464 79.8062 15.624 80.6382 15.624C81.3582 15.624 82.0062 15.512 82.5822 15.288C83.1582 15.064 83.6702 14.712 84.1182 14.232L85.7262 16.08C85.1502 16.752 84.4222 17.272 83.5422 17.64C82.6782 17.992 81.6862 18.168 80.5662 18.168Z" fill="#969696"/>
</svg>
