<svg width="304" height="100" viewBox="0 0 304 100" fill="none" xmlns="http://www.w3.org/2000/svg">
<path d="M294.089 60.8077L302.522 66.4299C299.785 70.4615 293.238 77.3782 281.92 77.3782C267.865 77.3782 257.397 66.5038 257.397 52.6704C257.397 37.9493 267.976 27.9626 280.737 27.9626C293.571 27.9626 299.859 38.1713 301.894 43.6824L303.003 46.4935L269.936 60.1789C272.451 65.1353 276.372 67.6505 281.92 67.6505C287.468 67.6505 291.315 64.9134 294.089 60.8077ZM268.161 51.8937L290.242 42.7207C289.022 39.6508 285.397 37.4685 281.07 37.4685C275.558 37.4685 267.902 42.3509 268.161 51.8937Z" fill="#FF302F"/>
<path d="M241.456 2.77405H252.108V75.122H241.456V2.77405Z" fill="#20B15A"/>
<path d="M224.663 29.886H234.946V73.8274C234.946 92.0624 224.182 99.5709 211.459 99.5709C199.475 99.5709 192.262 91.5075 189.562 84.9607L198.994 81.04C200.695 85.0717 204.801 89.8431 211.459 89.8431C219.633 89.8431 224.663 84.7758 224.663 75.3069V71.7561H224.293C221.852 74.7151 217.192 77.3782 211.274 77.3782C198.92 77.3782 187.602 66.6148 187.602 52.7444C187.602 38.8 198.92 27.9257 211.274 27.9257C217.155 27.9257 221.852 30.5518 224.293 33.4368H224.663V29.886ZM225.403 52.7444C225.403 44.0153 219.596 37.6534 212.198 37.6534C204.727 37.6534 198.439 44.0153 198.439 52.7444C198.439 61.3626 204.727 67.6135 212.198 67.6135C219.596 67.6505 225.403 61.3626 225.403 52.7444Z" fill="#3686F7"/>
<path d="M129.124 52.5595C129.124 66.7998 118.028 77.2673 104.416 77.2673C90.8047 77.2673 79.7084 66.7628 79.7084 52.5595C79.7084 38.2452 90.8047 27.8147 104.416 27.8147C118.028 27.8147 129.124 38.2452 129.124 52.5595ZM118.324 52.5595C118.324 43.6824 111.888 37.5795 104.416 37.5795C96.9447 37.5795 90.5088 43.6824 90.5088 52.5595C90.5088 61.3626 96.9447 67.5395 104.416 67.5395C111.888 67.5395 118.324 61.3626 118.324 52.5595Z" fill="#FF302F"/>
<path d="M183.089 52.6704C183.089 66.9107 171.993 77.3782 158.381 77.3782C144.77 77.3782 133.674 66.9107 133.674 52.6704C133.674 38.3562 144.77 27.9626 158.381 27.9626C171.993 27.9626 183.089 38.3192 183.089 52.6704ZM172.252 52.6704C172.252 43.7934 165.816 37.6904 158.344 37.6904C150.873 37.6904 144.437 43.7934 144.437 52.6704C144.437 61.4735 150.873 67.6505 158.344 67.6505C165.853 67.6505 172.252 61.4365 172.252 52.6704Z" fill="#FFBA40"/>
<path d="M39.096 66.5409C23.5982 66.5409 11.4662 54.039 11.4662 38.5412C11.4662 23.0433 23.5982 10.5415 39.096 10.5415C47.4552 10.5415 53.5582 13.8334 58.0707 18.05L65.5052 10.6155C59.2173 4.58648 50.8211 0 39.096 0C17.8651 0 0 17.3102 0 38.5412C0 59.7721 17.8651 77.0824 39.096 77.0824C50.5622 77.0824 59.2173 73.3096 65.9861 66.282C72.9398 59.3283 75.0851 49.5635 75.0851 41.6482C75.0851 39.17 74.7892 36.6178 74.4563 34.7315H39.096V45.014H64.2847C63.5449 51.4499 61.5106 55.8514 58.5146 58.8475C54.8898 62.5092 49.1567 66.5409 39.096 66.5409Z" fill="#3686F7"/>
</svg>
