<svg width="649" height="56" viewBox="0 0 649 56" fill="none" xmlns="http://www.w3.org/2000/svg">
<rect width="643" height="56" transform="translate(6)" fill="white"/>
<rect x="12" y="6" width="276" height="44" rx="8" fill="#F1F1F1"/>
<path d="M68.1521 34V22.8H72.9841C74.2321 22.8 75.1975 23.0507 75.8801 23.552C76.5735 24.0533 76.9201 24.7627 76.9201 25.68C76.9201 26.288 76.7761 26.8 76.4881 27.216C76.2108 27.632 75.8268 27.9467 75.3361 28.16C74.8561 28.3733 74.3281 28.48 73.7521 28.48L74.0241 28.096C74.7388 28.096 75.3521 28.208 75.8641 28.432C76.3868 28.6453 76.7921 28.9707 77.0801 29.408C77.3681 29.8347 77.5121 30.368 77.5121 31.008C77.5121 31.9573 77.1601 32.6933 76.4561 33.216C75.7628 33.7387 74.7121 34 73.3041 34H68.1521ZM69.3361 33.024H73.2881C74.2695 33.024 75.0215 32.8587 75.5441 32.528C76.0668 32.1867 76.3281 31.648 76.3281 30.912C76.3281 30.1867 76.0668 29.6587 75.5441 29.328C75.0215 28.9867 74.2695 28.816 73.2881 28.816H69.2081V27.84H72.9041C73.8001 27.84 74.4935 27.6693 74.9841 27.328C75.4855 26.9867 75.7361 26.48 75.7361 25.808C75.7361 25.1253 75.4855 24.6187 74.9841 24.288C74.4935 23.9467 73.8001 23.776 72.9041 23.776H69.3361V33.024ZM80.0386 37.184C79.644 37.184 79.2653 37.12 78.9026 36.992C78.5506 36.864 78.2466 36.672 77.9906 36.416L78.5186 35.568C78.732 35.7707 78.9613 35.9253 79.2066 36.032C79.4626 36.1493 79.7453 36.208 80.0546 36.208C80.428 36.208 80.748 36.1013 81.0146 35.888C81.292 35.6853 81.5533 35.3227 81.7986 34.8L82.3426 33.568L82.4706 33.392L85.9266 25.6H87.0466L82.8386 35.008C82.604 35.552 82.3426 35.984 82.0546 36.304C81.7773 36.624 81.4733 36.848 81.1426 36.976C80.812 37.1147 80.444 37.184 80.0386 37.184ZM82.2786 34.24L78.4066 25.6H79.5906L83.0146 33.312L82.2786 34.24ZM93.074 34V22.8H94.258V32.976H100.53V34H93.074ZM105.555 34.08C104.744 34.08 104.014 33.8987 103.363 33.536C102.723 33.1627 102.216 32.656 101.843 32.016C101.47 31.3653 101.283 30.624 101.283 29.792C101.283 28.9493 101.47 28.208 101.843 27.568C102.216 26.928 102.723 26.4267 103.363 26.064C104.003 25.7013 104.734 25.52 105.555 25.52C106.387 25.52 107.123 25.7013 107.763 26.064C108.414 26.4267 108.92 26.928 109.283 27.568C109.656 28.208 109.843 28.9493 109.843 29.792C109.843 30.624 109.656 31.3653 109.283 32.016C108.92 32.656 108.414 33.1627 107.763 33.536C107.112 33.8987 106.376 34.08 105.555 34.08ZM105.555 33.072C106.163 33.072 106.702 32.9387 107.171 32.672C107.64 32.3947 108.008 32.0107 108.275 31.52C108.552 31.0187 108.691 30.4427 108.691 29.792C108.691 29.1307 108.552 28.5547 108.275 28.064C108.008 27.5733 107.64 27.1947 107.171 26.928C106.702 26.6507 106.168 26.512 105.571 26.512C104.974 26.512 104.44 26.6507 103.971 26.928C103.502 27.1947 103.128 27.5733 102.851 28.064C102.574 28.5547 102.435 29.1307 102.435 29.792C102.435 30.4427 102.574 31.0187 102.851 31.52C103.128 32.0107 103.502 32.3947 103.971 32.672C104.44 32.9387 104.968 33.072 105.555 33.072ZM115.65 34.08C114.818 34.08 114.071 33.8987 113.41 33.536C112.759 33.1627 112.247 32.656 111.874 32.016C111.501 31.3653 111.314 30.624 111.314 29.792C111.314 28.9493 111.501 28.208 111.874 27.568C112.247 26.928 112.759 26.4267 113.41 26.064C114.071 25.7013 114.818 25.52 115.65 25.52C116.365 25.52 117.01 25.6587 117.586 25.936C118.162 26.2133 118.615 26.6293 118.946 27.184L118.098 27.76C117.81 27.3333 117.453 27.0187 117.026 26.816C116.599 26.6133 116.135 26.512 115.634 26.512C115.037 26.512 114.498 26.6507 114.018 26.928C113.538 27.1947 113.159 27.5733 112.882 28.064C112.605 28.5547 112.466 29.1307 112.466 29.792C112.466 30.4533 112.605 31.0293 112.882 31.52C113.159 32.0107 113.538 32.3947 114.018 32.672C114.498 32.9387 115.037 33.072 115.634 33.072C116.135 33.072 116.599 32.9707 117.026 32.768C117.453 32.5653 117.81 32.256 118.098 31.84L118.946 32.416C118.615 32.96 118.162 33.376 117.586 33.664C117.01 33.9413 116.365 34.08 115.65 34.08ZM126.442 34V32.144L126.394 31.84V28.736C126.394 28.0213 126.191 27.472 125.786 27.088C125.391 26.704 124.799 26.512 124.01 26.512C123.466 26.512 122.948 26.6027 122.458 26.784C121.967 26.9653 121.551 27.2053 121.21 27.504L120.698 26.656C121.124 26.2933 121.636 26.016 122.234 25.824C122.831 25.6213 123.46 25.52 124.122 25.52C125.21 25.52 126.047 25.792 126.634 26.336C127.231 26.8693 127.53 27.6853 127.53 28.784V34H126.442ZM123.546 34.08C122.916 34.08 122.367 33.9787 121.898 33.776C121.439 33.5627 121.087 33.2747 120.842 32.912C120.596 32.5387 120.474 32.112 120.474 31.632C120.474 31.1947 120.575 30.8 120.778 30.448C120.991 30.0853 121.332 29.7973 121.802 29.584C122.282 29.36 122.922 29.248 123.722 29.248H126.618V30.096H123.754C122.943 30.096 122.378 30.24 122.058 30.528C121.748 30.816 121.594 31.1733 121.594 31.6C121.594 32.08 121.78 32.464 122.154 32.752C122.527 33.04 123.05 33.184 123.722 33.184C124.362 33.184 124.911 33.04 125.37 32.752C125.839 32.4533 126.18 32.0267 126.394 31.472L126.65 32.256C126.436 32.8107 126.063 33.2533 125.53 33.584C125.007 33.9147 124.346 34.08 123.546 34.08ZM133.271 34.08C132.482 34.08 131.874 33.8667 131.447 33.44C131.021 33.0133 130.807 32.4107 130.807 31.632V23.744H131.943V31.568C131.943 32.0587 132.066 32.4373 132.311 32.704C132.567 32.9707 132.93 33.104 133.399 33.104C133.901 33.104 134.317 32.96 134.647 32.672L135.047 33.488C134.823 33.6907 134.551 33.84 134.231 33.936C133.922 34.032 133.602 34.08 133.271 34.08ZM129.303 26.544V25.6H134.503V26.544H129.303ZM137.115 34V25.6H138.251V34H137.115ZM137.691 23.744C137.457 23.744 137.259 23.664 137.099 23.504C136.939 23.344 136.859 23.152 136.859 22.928C136.859 22.704 136.939 22.5173 137.099 22.368C137.259 22.208 137.457 22.128 137.691 22.128C137.926 22.128 138.123 22.2027 138.283 22.352C138.443 22.5013 138.523 22.688 138.523 22.912C138.523 23.1467 138.443 23.344 138.283 23.504C138.134 23.664 137.937 23.744 137.691 23.744ZM144.836 34.08C144.025 34.08 143.295 33.8987 142.644 33.536C142.004 33.1627 141.497 32.656 141.124 32.016C140.751 31.3653 140.564 30.624 140.564 29.792C140.564 28.9493 140.751 28.208 141.124 27.568C141.497 26.928 142.004 26.4267 142.644 26.064C143.284 25.7013 144.015 25.52 144.836 25.52C145.668 25.52 146.404 25.7013 147.044 26.064C147.695 26.4267 148.201 26.928 148.564 27.568C148.937 28.208 149.124 28.9493 149.124 29.792C149.124 30.624 148.937 31.3653 148.564 32.016C148.201 32.656 147.695 33.1627 147.044 33.536C146.393 33.8987 145.657 34.08 144.836 34.08ZM144.836 33.072C145.444 33.072 145.983 32.9387 146.452 32.672C146.921 32.3947 147.289 32.0107 147.556 31.52C147.833 31.0187 147.972 30.4427 147.972 29.792C147.972 29.1307 147.833 28.5547 147.556 28.064C147.289 27.5733 146.921 27.1947 146.452 26.928C145.983 26.6507 145.449 26.512 144.852 26.512C144.255 26.512 143.721 26.6507 143.252 26.928C142.783 27.1947 142.409 27.5733 142.132 28.064C141.855 28.5547 141.716 29.1307 141.716 29.792C141.716 30.4427 141.855 31.0187 142.132 31.52C142.409 32.0107 142.783 32.3947 143.252 32.672C143.721 32.9387 144.249 33.072 144.836 33.072ZM155.731 25.52C156.414 25.52 157.011 25.6533 157.523 25.92C158.046 26.176 158.451 26.5707 158.739 27.104C159.038 27.6373 159.187 28.3093 159.187 29.12V34H158.051V29.232C158.051 28.3467 157.827 27.68 157.379 27.232C156.942 26.7733 156.323 26.544 155.523 26.544C154.926 26.544 154.403 26.6667 153.955 26.912C153.518 27.1467 153.177 27.4933 152.931 27.952C152.697 28.4 152.579 28.944 152.579 29.584V34H151.443V25.6H152.531V27.904L152.355 27.472C152.622 26.864 153.049 26.3893 153.635 26.048C154.222 25.696 154.921 25.52 155.731 25.52Z" fill="#969696"/>
<path d="M42 26C42 33 33 39 33 39C33 39 24 33 24 26C24 23.6131 24.9482 21.3239 26.636 19.636C28.3239 17.9482 30.6131 17 33 17C35.3869 17 37.6761 17.9482 39.364 19.636C41.0518 21.3239 42 23.6131 42 26Z" stroke="#D21486" stroke-width="2" stroke-linecap="round" stroke-linejoin="round"/>
<path d="M33 29C34.6569 29 36 27.6569 36 26C36 24.3431 34.6569 23 33 23C31.3431 23 30 24.3431 30 26C30 27.6569 31.3431 29 33 29Z" fill="#D21486" stroke="#D21486" stroke-width="2" stroke-linecap="round" stroke-linejoin="round"/>
<rect x="303" y="6" width="276" height="44" rx="8" fill="#F1F1F1"/>
<path d="M359.129 34V22.8H363.961C365.209 22.8 366.174 23.0507 366.857 23.552C367.55 24.0533 367.897 24.7627 367.897 25.68C367.897 26.288 367.753 26.8 367.465 27.216C367.187 27.632 366.803 27.9467 366.313 28.16C365.833 28.3733 365.305 28.48 364.729 28.48L365.001 28.096C365.715 28.096 366.329 28.208 366.841 28.432C367.363 28.6453 367.769 28.9707 368.057 29.408C368.345 29.8347 368.489 30.368 368.489 31.008C368.489 31.9573 368.137 32.6933 367.433 33.216C366.739 33.7387 365.689 34 364.281 34H359.129ZM360.313 33.024H364.265C365.246 33.024 365.998 32.8587 366.521 32.528C367.043 32.1867 367.305 31.648 367.305 30.912C367.305 30.1867 367.043 29.6587 366.521 29.328C365.998 28.9867 365.246 28.816 364.265 28.816H360.185V27.84H363.881C364.777 27.84 365.47 27.6693 365.961 27.328C366.462 26.9867 366.713 26.48 366.713 25.808C366.713 25.1253 366.462 24.6187 365.961 24.288C365.47 23.9467 364.777 23.776 363.881 23.776H360.313V33.024ZM371.015 37.184C370.621 37.184 370.242 37.12 369.879 36.992C369.527 36.864 369.223 36.672 368.967 36.416L369.495 35.568C369.709 35.7707 369.938 35.9253 370.183 36.032C370.439 36.1493 370.722 36.208 371.031 36.208C371.405 36.208 371.725 36.1013 371.991 35.888C372.269 35.6853 372.53 35.3227 372.775 34.8L373.319 33.568L373.447 33.392L376.903 25.6H378.023L373.815 35.008C373.581 35.552 373.319 35.984 373.031 36.304C372.754 36.624 372.45 36.848 372.119 36.976C371.789 37.1147 371.421 37.184 371.015 37.184ZM373.255 34.24L369.383 25.6H370.567L373.991 33.312L373.255 34.24ZM387.139 34.096C386.307 34.096 385.507 33.9627 384.739 33.696C383.981 33.4187 383.395 33.0667 382.979 32.64L383.443 31.728C383.837 32.112 384.365 32.4373 385.027 32.704C385.699 32.96 386.403 33.088 387.139 33.088C387.843 33.088 388.413 33.0027 388.851 32.832C389.299 32.6507 389.624 32.4107 389.827 32.112C390.04 31.8133 390.147 31.4827 390.147 31.12C390.147 30.6827 390.019 30.3307 389.763 30.064C389.517 29.7973 389.192 29.5893 388.787 29.44C388.381 29.28 387.933 29.1413 387.443 29.024C386.952 28.9067 386.461 28.784 385.971 28.656C385.48 28.5173 385.027 28.336 384.611 28.112C384.205 27.888 383.875 27.5947 383.619 27.232C383.373 26.8587 383.251 26.3733 383.251 25.776C383.251 25.2213 383.395 24.7147 383.683 24.256C383.981 23.7867 384.435 23.4133 385.043 23.136C385.651 22.848 386.429 22.704 387.379 22.704C388.008 22.704 388.632 22.7947 389.251 22.976C389.869 23.1467 390.403 23.3867 390.851 23.696L390.451 24.64C389.971 24.32 389.459 24.0853 388.915 23.936C388.381 23.7867 387.864 23.712 387.363 23.712C386.691 23.712 386.136 23.8027 385.699 23.984C385.261 24.1653 384.936 24.4107 384.723 24.72C384.52 25.0187 384.419 25.36 384.419 25.744C384.419 26.1813 384.541 26.5333 384.787 26.8C385.043 27.0667 385.373 27.2747 385.779 27.424C386.195 27.5733 386.648 27.7067 387.139 27.824C387.629 27.9413 388.115 28.0693 388.595 28.208C389.085 28.3467 389.533 28.528 389.939 28.752C390.355 28.9653 390.685 29.2533 390.931 29.616C391.187 29.9787 391.315 30.4533 391.315 31.04C391.315 31.584 391.165 32.0907 390.867 32.56C390.568 33.0187 390.109 33.392 389.491 33.68C388.883 33.9573 388.099 34.096 387.139 34.096ZM397.222 34.08C396.348 34.08 395.58 33.8987 394.918 33.536C394.257 33.1627 393.74 32.656 393.366 32.016C392.993 31.3653 392.806 30.624 392.806 29.792C392.806 28.96 392.982 28.224 393.334 27.584C393.697 26.944 394.188 26.4427 394.806 26.08C395.436 25.7067 396.14 25.52 396.918 25.52C397.708 25.52 398.406 25.7013 399.014 26.064C399.633 26.416 400.118 26.9173 400.47 27.568C400.822 28.208 400.998 28.9493 400.998 29.792C400.998 29.8453 400.993 29.904 400.982 29.968C400.982 30.0213 400.982 30.08 400.982 30.144H393.67V29.296H400.374L399.926 29.632C399.926 29.024 399.793 28.4853 399.526 28.016C399.27 27.536 398.918 27.1627 398.47 26.896C398.022 26.6293 397.505 26.496 396.918 26.496C396.342 26.496 395.825 26.6293 395.366 26.896C394.908 27.1627 394.55 27.536 394.294 28.016C394.038 28.496 393.91 29.0453 393.91 29.664V29.84C393.91 30.48 394.049 31.0453 394.326 31.536C394.614 32.016 395.009 32.3947 395.51 32.672C396.022 32.9387 396.604 33.072 397.254 33.072C397.766 33.072 398.241 32.9813 398.678 32.8C399.126 32.6187 399.51 32.3413 399.83 31.968L400.47 32.704C400.097 33.152 399.628 33.4933 399.062 33.728C398.508 33.9627 397.894 34.08 397.222 34.08ZM403.311 34V25.6H404.399V27.888L404.287 27.488C404.521 26.848 404.916 26.3627 405.471 26.032C406.025 25.6907 406.713 25.52 407.535 25.52V26.624C407.492 26.624 407.449 26.624 407.407 26.624C407.364 26.6133 407.321 26.608 407.279 26.608C406.393 26.608 405.7 26.88 405.199 27.424C404.697 27.9573 404.447 28.72 404.447 29.712V34H403.311ZM412.127 34L408.399 25.6H409.583L413.007 33.392H412.447L415.919 25.6H417.039L413.295 34H412.127ZM418.639 34V25.6H419.775V34H418.639ZM419.215 23.744C418.98 23.744 418.783 23.664 418.623 23.504C418.463 23.344 418.383 23.152 418.383 22.928C418.383 22.704 418.463 22.5173 418.623 22.368C418.783 22.208 418.98 22.128 419.215 22.128C419.449 22.128 419.647 22.2027 419.807 22.352C419.967 22.5013 420.047 22.688 420.047 22.912C420.047 23.1467 419.967 23.344 419.807 23.504C419.657 23.664 419.46 23.744 419.215 23.744ZM426.424 34.08C425.592 34.08 424.845 33.8987 424.184 33.536C423.533 33.1627 423.021 32.656 422.648 32.016C422.274 31.3653 422.088 30.624 422.088 29.792C422.088 28.9493 422.274 28.208 422.648 27.568C423.021 26.928 423.533 26.4267 424.184 26.064C424.845 25.7013 425.592 25.52 426.424 25.52C427.138 25.52 427.784 25.6587 428.36 25.936C428.936 26.2133 429.389 26.6293 429.72 27.184L428.872 27.76C428.584 27.3333 428.226 27.0187 427.8 26.816C427.373 26.6133 426.909 26.512 426.408 26.512C425.81 26.512 425.272 26.6507 424.792 26.928C424.312 27.1947 423.933 27.5733 423.656 28.064C423.378 28.5547 423.24 29.1307 423.24 29.792C423.24 30.4533 423.378 31.0293 423.656 31.52C423.933 32.0107 424.312 32.3947 424.792 32.672C425.272 32.9387 425.81 33.072 426.408 33.072C426.909 33.072 427.373 32.9707 427.8 32.768C428.226 32.5653 428.584 32.256 428.872 31.84L429.72 32.416C429.389 32.96 428.936 33.376 428.36 33.664C427.784 33.9413 427.138 34.08 426.424 34.08ZM435.379 34.08C434.504 34.08 433.736 33.8987 433.075 33.536C432.413 33.1627 431.896 32.656 431.523 32.016C431.149 31.3653 430.963 30.624 430.963 29.792C430.963 28.96 431.139 28.224 431.491 27.584C431.853 26.944 432.344 26.4427 432.963 26.08C433.592 25.7067 434.296 25.52 435.075 25.52C435.864 25.52 436.563 25.7013 437.171 26.064C437.789 26.416 438.275 26.9173 438.627 27.568C438.979 28.208 439.155 28.9493 439.155 29.792C439.155 29.8453 439.149 29.904 439.139 29.968C439.139 30.0213 439.139 30.08 439.139 30.144H431.827V29.296H438.531L438.083 29.632C438.083 29.024 437.949 28.4853 437.683 28.016C437.427 27.536 437.075 27.1627 436.627 26.896C436.179 26.6293 435.661 26.496 435.075 26.496C434.499 26.496 433.981 26.6293 433.523 26.896C433.064 27.1627 432.707 27.536 432.451 28.016C432.195 28.496 432.067 29.0453 432.067 29.664V29.84C432.067 30.48 432.205 31.0453 432.483 31.536C432.771 32.016 433.165 32.3947 433.667 32.672C434.179 32.9387 434.76 33.072 435.411 33.072C435.923 33.072 436.397 32.9813 436.835 32.8C437.283 32.6187 437.667 32.3413 437.987 31.968L438.627 32.704C438.253 33.152 437.784 33.4933 437.219 33.728C436.664 33.9627 436.051 34.08 435.379 34.08ZM443.723 34.08C443.029 34.08 442.373 33.984 441.755 33.792C441.136 33.5893 440.651 33.3387 440.299 33.04L440.811 32.144C441.152 32.4 441.589 32.624 442.123 32.816C442.656 32.9973 443.216 33.088 443.803 33.088C444.603 33.088 445.179 32.9653 445.531 32.72C445.883 32.464 446.059 32.128 446.059 31.712C446.059 31.4027 445.957 31.1627 445.755 30.992C445.563 30.8107 445.307 30.6773 444.987 30.592C444.667 30.496 444.309 30.416 443.915 30.352C443.52 30.288 443.125 30.2133 442.731 30.128C442.347 30.0427 441.995 29.92 441.675 29.76C441.355 29.5893 441.093 29.36 440.891 29.072C440.699 28.784 440.603 28.4 440.603 27.92C440.603 27.4613 440.731 27.0507 440.987 26.688C441.243 26.3253 441.616 26.0427 442.107 25.84C442.608 25.6267 443.216 25.52 443.931 25.52C444.475 25.52 445.019 25.5947 445.563 25.744C446.107 25.8827 446.555 26.0693 446.907 26.304L446.411 27.216C446.037 26.96 445.637 26.7787 445.211 26.672C444.784 26.5547 444.357 26.496 443.931 26.496C443.173 26.496 442.613 26.6293 442.251 26.896C441.899 27.152 441.723 27.4827 441.723 27.888C441.723 28.208 441.819 28.4587 442.011 28.64C442.213 28.8213 442.475 28.9653 442.795 29.072C443.125 29.168 443.483 29.248 443.867 29.312C444.261 29.376 444.651 29.456 445.035 29.552C445.429 29.6373 445.787 29.76 446.107 29.92C446.437 30.0693 446.699 30.288 446.891 30.576C447.093 30.8533 447.195 31.2213 447.195 31.68C447.195 32.1707 447.056 32.5973 446.779 32.96C446.512 33.312 446.117 33.5893 445.595 33.792C445.083 33.984 444.459 34.08 443.723 34.08Z" fill="#969696"/>
<rect x="594" y="6" width="49" height="44" fill="#D21486"/>
<path d="M615 35C619.418 35 623 31.4183 623 27C623 22.5817 619.418 19 615 19C610.582 19 607 22.5817 607 27C607 31.4183 610.582 35 615 35Z" stroke="#D9D9D9" stroke-width="2" stroke-linecap="round" stroke-linejoin="round"/>
<path d="M625 37L620.65 32.65" stroke="#D9D9D9" stroke-width="2" stroke-linecap="round" stroke-linejoin="round"/>
</svg>
