<svg width="68" height="68" viewBox="0 0 184 118" fill="none" xmlns="http://www.w3.org/2000/svg">
<path d="M9.4359 0H174.564C179.776 0 184 4.22469 184 9.4359V108.513C184 113.724 179.776 117.949 174.564 117.949H9.4359C4.22469 117.949 0 113.724 0 108.513V9.4359C0 4.22469 4.22469 0 9.4359 0Z" fill="#16366F"/>
<path d="M105.92 58.9743C105.92 82.3619 86.9611 101.318 63.5742 101.318C40.1873 101.318 21.2306 82.361 21.2306 58.9743C21.2306 35.5891 40.1878 16.6307 63.5742 16.6307C86.9604 16.6307 105.92 35.5898 105.92 58.9743Z" fill="#D9222A"/>
<path d="M120.423 16.6299C109.482 16.6299 99.5126 20.7807 91.9976 27.5911C90.4666 28.9803 89.0375 30.4778 87.7219 32.0722H96.277C97.4485 33.4963 98.5265 34.9945 99.5053 36.5573H84.4939C83.5911 38.0012 82.7766 39.4987 82.0545 41.0413H101.943C102.626 42.5003 103.225 43.9971 103.736 45.5243H80.2617C79.7684 46.9951 79.3577 48.4921 79.031 50.0084H104.966C105.6 52.9548 105.92 55.9604 105.919 58.9744C105.919 63.6768 105.151 68.2011 103.736 72.4253H80.2612C80.7717 73.9537 81.3699 75.4507 82.0529 76.9097H101.943C101.22 78.4525 100.405 79.9502 99.5022 81.3948H84.4932C85.4731 82.9586 86.5526 84.4565 87.7215 85.8759H96.2746C94.9607 87.4734 93.5311 88.9723 91.9978 90.3608C99.5135 97.1704 109.482 101.319 120.423 101.319C143.81 101.319 162.769 82.362 162.769 58.9756C162.769 35.5911 143.81 16.632 120.423 16.632" fill="#EE9F2D"/>
<path d="M157.126 82.5782C157.126 81.8231 157.738 81.2098 158.494 81.2098C159.249 81.2098 159.861 81.8231 159.861 82.5782C159.861 83.3328 159.249 83.9462 158.494 83.9462C157.738 83.9459 157.126 83.3333 157.126 82.5782ZM158.494 83.618C159.068 83.6178 159.533 83.1521 159.533 82.5782C159.533 82.0043 159.068 81.5393 158.495 81.5393H158.494C157.921 81.5384 157.456 82.0024 157.455 82.5754V82.5784C157.454 83.1521 157.919 83.6178 158.492 83.6183C158.493 83.618 158.493 83.618 158.494 83.618ZM158.309 83.1793H158.029V81.9776H158.536C158.642 81.9776 158.75 81.9776 158.843 82.0375C158.941 82.1031 158.996 82.2192 158.996 82.339C158.996 82.4735 158.916 82.5994 158.788 82.6485L159.009 83.1793H158.698L158.514 82.7037H158.309L158.309 83.1793ZM158.309 82.4975H158.464C158.522 82.4975 158.583 82.5022 158.635 82.4739C158.681 82.4444 158.705 82.3892 158.705 82.3362C158.705 82.2902 158.677 82.2371 158.637 82.2144C158.588 82.1835 158.511 82.1906 158.458 82.1906H158.309V82.4975ZM53.6884 63.6109C53.206 63.555 52.9937 63.5399 52.6623 63.5399C50.0568 63.5399 48.7376 64.4337 48.7376 66.198C48.7376 67.2857 49.3816 67.978 50.3859 67.978C52.2584 67.978 53.608 66.1946 53.6884 63.6109ZM57.0313 71.3945H53.2225L53.31 69.5838C52.1482 71.015 50.5982 71.6951 48.4918 71.6951C46.0003 71.6951 44.2919 69.7489 44.2919 66.9231C44.2919 62.6713 47.2633 60.1906 52.3636 60.1906C52.8845 60.1906 53.5528 60.2378 54.2369 60.3248C54.3796 59.749 54.4169 59.5025 54.4169 59.1925C54.4169 58.0347 53.6158 57.603 51.4681 57.603C49.2193 57.5775 47.3645 58.1388 46.6028 58.3895C46.6509 58.0994 47.2397 54.4599 47.2397 54.4599C49.5307 53.7886 51.0416 53.5359 52.742 53.5359C56.6893 53.5359 58.78 55.308 58.7762 58.6577C58.7838 59.5553 58.6354 60.6629 58.4035 62.1186C58.0044 64.65 57.1486 70.0726 57.0313 71.3945ZM42.3684 71.3945H37.7712L40.4046 54.8824L34.5248 71.3945H31.3921L31.0052 54.9768L28.2372 71.3945H23.934L27.5286 49.9151H34.1384L34.5394 61.9379L38.5714 49.9151H45.9236L42.3684 71.3945ZM126.107 63.6109C125.627 63.555 125.413 63.5399 125.083 63.5399C122.478 63.5399 121.159 64.4337 121.159 66.198C121.159 67.2857 121.802 67.978 122.806 67.978C124.679 67.978 126.03 66.1946 126.107 63.6109ZM129.453 71.3945H125.644L125.731 69.5838C124.569 71.015 123.018 71.6951 120.914 71.6951C118.421 71.6951 116.715 69.7489 116.715 66.9231C116.715 62.6713 119.684 60.1906 124.785 60.1906C125.306 60.1906 125.973 60.2378 126.657 60.3248C126.799 59.749 126.837 59.5025 126.837 59.1925C126.837 58.0347 126.037 57.603 123.889 57.603C121.64 57.5775 119.787 58.1388 119.022 58.3895C119.071 58.0994 119.661 54.4599 119.661 54.4599C121.953 53.7886 123.462 53.5359 125.161 53.5359C129.11 53.5359 131.201 55.308 131.197 58.6577C131.204 59.5553 131.056 60.6629 130.824 62.1186C130.427 64.65 129.569 70.0726 129.453 71.3945ZM77.4636 71.1292C76.2053 71.5255 75.2244 71.6951 74.161 71.6951C71.8108 71.6951 70.5282 70.3446 70.5282 67.8577C70.4947 67.0863 70.8662 65.0555 71.158 63.2018C71.4234 61.5701 73.1514 51.2819 73.1514 51.2819H77.7209L77.1873 53.9261H79.9473L79.3239 58.1241H76.554C76.0232 61.4463 75.2674 65.5844 75.2586 66.1328C75.2586 67.0333 75.7392 67.4263 76.8321 67.4263C77.356 67.4263 77.7618 67.373 78.0717 67.2611L77.4636 71.1292ZM91.4738 70.9876C89.9041 71.4672 88.3894 71.6993 86.7844 71.6953C81.6694 71.6903 79.0028 69.0188 79.0028 63.9031C79.0028 57.9319 82.395 53.5362 86.9997 53.5362C90.767 53.5362 93.1732 55.9973 93.1732 59.8573C93.1732 61.1379 93.008 62.3882 92.6101 64.1534H83.5103C83.2027 66.6874 84.8243 67.7431 87.4821 67.7431C89.1181 67.7431 90.5932 67.4057 92.2336 66.6431L91.4738 70.9876ZM88.9055 60.6317C88.9308 60.2677 89.3901 57.5139 86.7794 57.5139C85.3237 57.5139 84.2829 58.6235 83.859 60.6317H88.9055ZM59.7911 59.4482C59.7911 61.6579 60.8623 63.1813 63.292 64.3256C65.1537 65.2006 65.4418 65.4601 65.4418 66.2529C65.4418 67.3421 64.6208 67.8334 62.8016 67.8334C61.4306 67.8334 60.1548 67.6195 58.6833 67.1446C58.6833 67.1446 58.0787 70.9945 58.0511 71.1787C59.0961 71.4066 60.0279 71.6177 62.8351 71.6953C67.6856 71.6953 69.9257 69.8485 69.9257 65.8568C69.9257 63.4566 68.988 62.048 66.6852 60.9896C64.7577 60.105 64.5364 59.9073 64.5364 59.0915C64.5364 58.147 65.3002 57.6653 66.7864 57.6653C67.6887 57.6653 68.9213 57.7615 70.089 57.9279L70.7436 53.8763C69.5532 53.6876 67.7486 53.5362 66.6979 53.5362C61.5554 53.5362 59.7753 56.2223 59.7911 59.4482ZM113.833 53.9952C115.11 53.9952 116.3 54.3302 117.941 55.1558L118.692 50.494C118.019 50.2298 115.648 48.6776 113.64 48.6776C110.564 48.6776 107.963 50.2039 106.134 52.7233C103.466 51.8396 102.369 53.6256 101.025 55.4047L99.8307 55.6828C99.921 55.0971 100.003 54.5151 99.9753 53.9263H95.7537C95.1769 59.3324 94.1545 64.8083 93.3543 70.2209L93.1458 71.3948H97.7449C98.5125 66.4072 98.9333 63.2136 99.1888 61.0526L100.921 60.0892C101.179 59.1267 101.989 58.8016 103.614 58.8408C103.395 60.0222 103.286 61.221 103.288 62.4227C103.288 68.1373 106.371 71.6953 111.32 71.6953C112.595 71.6953 113.689 71.5273 115.382 71.0685L116.192 66.1713C114.668 66.9214 113.417 67.2743 112.285 67.2743C109.613 67.2743 107.996 65.3018 107.996 62.0412C107.995 57.3115 110.401 53.9952 113.833 53.9952Z" fill="black"/>
<path d="M43.6904 70.1182H39.0925L41.7275 53.6082L35.8477 70.1182H32.7145L32.3272 53.7025L29.5594 70.1182H25.2559L28.8505 48.6416H35.4604L35.6463 61.9373L40.1057 48.6416H47.2456L43.6904 70.1182Z" fill="white"/>
<path d="M152.748 49.9159L151.729 56.1219C150.472 54.4678 149.122 53.2706 147.339 53.2706C145.019 53.2706 142.908 55.029 141.526 57.617C139.601 57.2179 137.611 56.5406 137.611 56.5406L137.61 56.5564C137.765 55.1096 137.827 54.2269 137.813 53.9271H133.591C133.016 59.3332 131.994 64.809 131.195 70.2217L130.984 71.3955H135.582C136.203 67.3624 136.679 64.0136 137.029 61.3579C138.6 59.9385 139.386 58.7 140.973 58.7826C140.27 60.4824 139.859 62.4399 139.859 64.4481C139.859 68.8153 142.068 71.6961 145.41 71.6961C147.095 71.6961 148.387 71.1153 149.648 69.7688L149.433 71.3927H153.781L157.283 49.9159H152.748ZM146.999 67.3586C145.434 67.3586 144.644 66.2006 144.644 63.9152C144.644 60.4822 146.124 58.0473 148.209 58.0473C149.789 58.0473 150.644 59.2513 150.644 61.4697C150.644 64.9329 149.141 67.3586 146.999 67.3586Z" fill="black"/>
<path d="M55.0088 62.3382C54.5271 62.2825 54.3139 62.2674 53.9836 62.2674C51.3779 62.2674 50.0597 63.161 50.0597 64.9253C50.0597 66.0114 50.7037 66.7056 51.7062 66.7056C53.5805 66.7054 54.93 64.9225 55.0088 62.3382ZM58.3536 70.119H54.5448L54.6314 68.3114C53.4705 69.7395 51.9186 70.4226 49.8141 70.4226C47.3214 70.4226 45.6142 68.4765 45.6142 65.6507C45.6142 61.397 48.5844 58.9177 53.6857 58.9177C54.2068 58.9177 54.8751 58.9649 55.5582 59.0524C55.7007 58.4763 55.738 58.2298 55.738 57.9182C55.738 56.7604 54.938 56.3306 52.7902 56.3306C50.5404 56.3051 48.6868 56.8666 47.9239 57.1142C47.972 56.825 48.5608 53.1894 48.5608 53.1894C50.8511 52.5152 52.3637 52.2623 54.0622 52.2623C58.0106 52.2623 60.1021 54.0358 60.0983 57.3825C60.1051 58.2836 59.9556 59.3904 59.7246 60.8443C59.3267 63.3743 58.4697 68.7999 58.3536 70.119ZM120.012 49.2204L119.259 53.8834C117.62 53.0587 116.429 52.7225 115.153 52.7225C111.721 52.7225 109.315 56.0388 109.315 60.7683C109.315 64.0286 110.932 66.0007 113.604 66.0007C114.736 66.0007 115.986 65.6488 117.509 64.8974L116.702 69.7923C115.008 70.2544 113.915 70.4226 112.639 70.4226C107.691 70.4226 104.606 66.8644 104.606 61.1497C104.606 53.4713 108.867 48.1046 114.96 48.1046C116.966 48.1049 119.338 48.956 120.012 49.2204ZM127.43 62.3382C126.948 62.2825 126.736 62.2674 126.404 62.2674C123.8 62.2674 122.48 63.161 122.48 64.9253C122.48 66.0114 123.124 66.7056 124.128 66.7056C126 66.7054 127.351 64.9225 127.43 62.3382ZM130.774 70.119H126.965L127.052 68.3114C125.89 69.7395 124.339 70.4226 122.235 70.4226C119.743 70.4226 118.035 68.4765 118.035 65.6507C118.035 61.397 121.006 58.9177 126.105 58.9177C126.628 58.9177 127.295 58.9649 127.979 59.0524C128.121 58.4763 128.159 58.2298 128.159 57.9182C128.159 56.7604 127.359 56.3306 125.211 56.3306C122.962 56.3051 121.107 56.8666 120.345 57.1142C120.393 56.825 120.982 53.1894 120.982 53.1894C123.273 52.5152 124.784 52.2623 126.483 52.2623C130.432 52.2623 132.523 54.0358 132.518 57.3825C132.526 58.2836 132.377 59.3904 132.145 60.8443C131.748 63.3743 130.889 68.7999 130.774 70.119ZM78.7849 69.8544C77.5257 70.2507 76.5448 70.4226 75.4824 70.4226C73.1321 70.4226 71.8495 69.0719 71.8495 66.5855C71.817 65.8116 72.1885 63.7828 72.4806 61.9294C72.7448 60.2956 74.4729 50.0088 74.4729 50.0088H79.0416L78.5087 52.6537H80.854L80.2298 56.8498H77.8767C77.3459 60.1738 76.588 64.3086 76.5802 64.8583C76.5802 65.7618 77.0619 66.1517 78.1539 66.1517C78.6776 66.1517 79.0829 66.1005 79.3933 65.9885L78.7849 69.8544ZM92.7953 69.7149C91.2266 70.1945 89.7098 70.4257 88.1057 70.4226C82.9905 70.4177 80.3241 67.7461 80.3241 62.6302C80.3241 56.6571 83.7164 52.2625 88.3211 52.2625C92.0883 52.2625 94.4945 54.7227 94.4945 58.5846C94.4945 59.8662 94.3294 61.1165 93.9326 62.8808H84.8329C84.5248 65.4145 86.1466 66.4714 88.8047 66.4714C90.4394 66.4714 91.9157 66.1331 93.5549 65.3683L92.7953 69.7149ZM90.2259 59.3562C90.2535 58.9934 90.7117 56.2384 88.0998 56.2384C86.6453 56.2384 85.6042 57.3511 85.1806 59.3562H90.2259ZM61.1115 58.1758C61.1115 60.385 62.1829 61.9067 64.6127 63.053C66.4741 63.9277 66.7622 64.1881 66.7622 64.9802C66.7622 66.0694 65.9405 66.5608 64.1232 66.5608C62.751 66.5608 61.4752 66.3466 60.0028 65.8719C60.0028 65.8719 59.4003 69.7218 59.3729 69.9058C60.4156 70.1339 61.3483 70.3422 64.1555 70.4226C69.0072 70.4226 71.2463 68.5758 71.2463 64.5851C71.2463 62.1837 70.3096 60.7754 68.0056 59.7169C66.079 58.8304 65.8561 58.6358 65.8561 57.8189C65.8561 56.8753 66.6216 56.3898 68.1068 56.3898C69.0081 56.3898 70.2407 56.4889 71.4103 56.6552L72.064 52.6025C70.8748 52.4138 69.0702 52.2625 68.0193 52.2625C62.8758 52.2625 61.0969 54.9468 61.1115 58.1758ZM155.105 70.119H150.756L150.972 68.493C149.711 69.8416 148.418 70.4226 146.734 70.4226C143.391 70.4226 141.183 67.5416 141.183 63.1747C141.183 57.3645 144.608 52.4666 148.663 52.4666C150.446 52.4666 151.796 53.195 153.052 54.8482L154.072 48.6422H158.606L155.105 70.119ZM148.324 66.0831C150.465 66.0831 151.969 63.6573 151.969 60.1967C151.969 57.9781 151.112 56.7741 149.533 56.7741C147.448 56.7741 145.967 59.2078 145.967 62.642C145.967 64.9269 146.759 66.0831 148.324 66.0831ZM134.915 52.6537C134.339 58.0597 133.317 63.5356 132.518 68.9454L132.307 70.119H136.905C138.55 59.4388 138.948 57.353 141.526 57.6143C141.937 55.4285 142.701 53.5137 143.271 52.5475C141.346 52.1465 140.271 53.2347 138.863 55.3016C138.974 54.4083 139.178 53.5404 139.137 52.6537H134.915ZM97.0722 52.6537C96.4952 58.0597 95.4728 63.5356 94.6738 68.9454L94.4645 70.119H99.0645C100.707 59.4388 101.104 57.353 103.681 57.6143C104.094 55.4285 104.858 53.5137 105.426 52.5475C103.503 52.1465 102.427 53.2347 101.02 55.3016C101.131 54.4083 101.333 53.5404 101.294 52.6537H97.0722ZM157.125 68.7518C157.125 67.9936 157.737 67.3836 158.492 67.3836C159.246 67.3829 159.858 67.9938 159.859 68.7482V68.7518C159.859 69.5066 159.247 70.1186 158.492 70.119C157.737 70.1186 157.125 69.5066 157.125 68.7518ZM158.492 69.7907C159.066 69.7909 159.53 69.3259 159.53 68.7525V68.752C159.531 68.1781 159.066 67.7126 158.493 67.7122H158.492C157.917 67.7124 157.452 68.1778 157.452 68.752C157.452 69.3257 157.918 69.7907 158.492 69.7907ZM158.307 69.3495H158.027V68.1502H158.535C158.64 68.1502 158.749 68.1521 158.84 68.2102C158.939 68.2769 158.995 68.3911 158.995 68.5107C158.995 68.6463 158.915 68.7732 158.785 68.8214L159.007 69.3488H158.696L158.512 68.8752H158.307V69.3488V69.3495ZM158.307 68.6702H158.461C158.519 68.6702 158.582 68.6744 158.633 68.6466C158.679 68.6171 158.703 68.5614 158.703 68.5081C158.701 68.4586 158.676 68.4128 158.635 68.3845C158.587 68.3569 158.507 68.3644 158.455 68.3644H158.307L158.307 68.6702Z" fill="white"/>
</svg>
