<svg width="67" height="67" viewBox="0 0 67 67" fill="none" xmlns="http://www.w3.org/2000/svg">
<g clip-path="url(#clip0_434_389)">
<path d="M3.57333 12.462H63.4267C65.4002 12.462 67 14.0618 67 16.0353V50.9647C67 52.9382 65.4002 54.538 63.4267 54.538H3.57333C1.59984 54.538 0 52.9382 0 50.9647V16.0353C0 14.0618 1.59984 12.462 3.57333 12.462ZM19.6649 50.1312V47.9112C19.6649 47.0599 19.1468 46.5051 18.2964 46.5051C17.8497 46.5051 17.3718 46.6534 17.0385 47.1305C16.7795 46.7231 16.4132 46.5051 15.8549 46.5051C15.4332 46.4869 15.0306 46.6815 14.7829 47.0233V46.5766H14.0798V50.1285H14.7829V48.0962C14.7829 47.4708 15.1527 47.1716 15.6709 47.1716C16.189 47.1716 16.4847 47.5048 16.4847 48.0962V50.1312H17.1877V48.0962C17.1877 47.4708 17.5576 47.1716 18.0757 47.1716C18.5938 47.1716 18.8895 47.5048 18.8895 48.0962V50.1312H19.6649ZM31.2086 46.6159H29.9133V45.5439H29.212V46.6159H28.4723V47.2412H29.212V48.91C29.212 49.7238 29.5077 50.2053 30.3957 50.2053C30.7321 50.1983 31.0617 50.1094 31.356 49.9463L31.1336 49.3209C30.934 49.4457 30.7025 49.5099 30.4671 49.5058C30.0973 49.5058 29.9124 49.2834 29.9124 48.9136V47.2127H31.2077V46.6204L31.2086 46.6159ZM37.7943 46.5051C37.4047 46.4965 37.0393 46.6932 36.8321 47.0233V46.5766H36.1291V50.1285H36.8321V48.1337C36.8321 47.5414 37.1278 47.1716 37.6093 47.1716C37.7718 47.1782 37.933 47.203 38.09 47.2457L38.3124 46.5793C38.1427 46.5365 37.9691 46.5117 37.7943 46.5051ZM27.8416 46.875C27.4718 46.6159 26.9537 46.5051 26.3989 46.5051C25.5109 46.5051 24.9562 46.9125 24.9562 47.6156C24.9562 48.2078 25.3635 48.5401 26.1398 48.6518L26.5097 48.6884C26.917 48.7626 27.1761 48.9109 27.1761 49.0958C27.1761 49.3549 26.8804 49.5425 26.3247 49.5425C25.9005 49.5512 25.4849 49.4214 25.1411 49.1726L24.7712 49.7274C25.2894 50.0972 25.9183 50.1741 26.2899 50.1741C27.3262 50.1741 27.8809 49.6934 27.8809 49.027C27.8809 48.4017 27.4343 48.1024 26.6597 47.9907L26.2899 47.9541C25.9567 47.9175 25.6646 47.8058 25.6646 47.5843C25.6646 47.3252 25.9603 47.1376 26.3676 47.1376C26.8143 47.1376 27.2556 47.3225 27.478 47.4333L27.8416 46.875ZM38.5715 48.3552C38.5715 49.4272 39.2745 50.2053 40.4216 50.2053C40.9397 50.2053 41.3095 50.0946 41.6794 49.798L41.3095 49.2432C41.0477 49.4553 40.7219 49.5727 40.3849 49.5764C39.7596 49.5764 39.2745 49.0958 39.2745 48.3927C39.2745 47.6897 39.7533 47.2127 40.3849 47.2127C40.7219 47.2164 41.0477 47.3338 41.3095 47.5459L41.6794 46.9911C41.3095 46.6954 40.9397 46.5837 40.4216 46.5837C39.3111 46.5096 38.5715 47.2868 38.5715 48.3597V48.3552ZM33.6135 46.5051C32.5772 46.5051 31.8741 47.2448 31.8741 48.3552C31.8741 49.4656 32.6138 50.2053 33.6867 50.2053C34.2087 50.2163 34.7184 50.0466 35.1294 49.7247L34.7596 49.2066C34.4623 49.4369 34.0993 49.5665 33.7233 49.5764C33.2427 49.5764 32.7246 49.2807 32.6513 48.6518H35.2786V48.3561C35.2786 47.2457 34.6122 46.506 33.6135 46.506V46.5051ZM33.5768 47.1716C34.095 47.1716 34.4648 47.5048 34.5014 48.0595H32.5781C32.6889 47.5414 33.0247 47.1716 33.5768 47.1716ZM23.994 48.3552V46.5793H23.291V47.026C23.0319 46.6927 22.6657 46.5078 22.1439 46.5078C21.1452 46.5078 20.4046 47.285 20.4046 48.3579C20.4046 49.4308 21.1443 50.208 22.1439 50.208C22.6621 50.208 23.0319 50.0231 23.291 49.6899V50.1365H23.994V48.3552ZM21.1452 48.3552C21.1452 47.6888 21.5526 47.1716 22.2556 47.1716C22.922 47.1716 23.3276 47.6897 23.3276 48.3552C23.3276 49.0583 22.8809 49.5389 22.2556 49.5389C21.5526 49.5755 21.1452 49.0208 21.1452 48.3552ZM48.4884 46.5051C48.0988 46.4965 47.7334 46.6932 47.5262 47.0233V46.5766H46.8232V50.1285H47.5253V48.1337C47.5253 47.5414 47.821 47.1716 48.3025 47.1716C48.465 47.1782 48.6262 47.203 48.7832 47.2457L49.0056 46.5793C48.8359 46.5365 48.6623 46.5117 48.4875 46.5051H48.4884ZM45.7503 48.3552V46.5793H45.0472V47.026C44.7882 46.6927 44.4219 46.5078 43.9002 46.5078C42.9014 46.5078 42.1609 47.285 42.1609 48.3579C42.1609 49.4308 42.9006 50.208 43.9002 50.208C44.4183 50.208 44.7882 50.0231 45.0472 49.6899V50.1365H45.7503V48.3552ZM42.9014 48.3552C42.9014 47.6888 43.3088 47.1716 44.0119 47.1716C44.6783 47.1716 45.0839 47.6897 45.0839 48.3552C45.0839 49.0583 44.6372 49.5389 44.0119 49.5389C43.3088 49.5755 42.9014 49.0208 42.9014 48.3552ZM52.8916 48.3552V45.1732H52.1885V47.0233C51.9295 46.6901 51.5632 46.5051 51.0415 46.5051C50.0427 46.5051 49.3022 47.2823 49.3022 48.3552C49.3022 49.4281 50.0419 50.2053 51.0415 50.2053C51.5596 50.2053 51.9295 50.0204 52.1885 49.6872V50.1339H52.8916V48.3552ZM50.0428 48.3552C50.0428 47.6888 50.4501 47.1716 51.1532 47.1716C51.8196 47.1716 52.2252 47.6897 52.2252 48.3552C52.2252 49.0583 51.7785 49.5389 51.1532 49.5389C50.4492 49.5764 50.0419 49.0217 50.0419 48.3552H50.0428ZM50.6368 20.6932C46.0403 16.0941 38.7926 15.4918 33.5 19.2692C29.4409 16.3771 24.1063 15.995 19.6765 18.279C15.2466 20.563 12.4639 25.1303 12.4656 30.1143C12.4639 35.0982 15.2466 39.6656 19.6765 41.9495C24.1063 44.2335 29.4409 43.8514 33.5 40.9593C37.5591 43.8514 42.8937 44.2335 47.3235 41.9495C51.7534 39.6656 54.5361 35.0982 54.5344 30.1143C54.545 26.5796 53.1412 23.1875 50.6359 20.6941L50.6368 20.6932ZM33.5 38.8511C30.9996 36.6364 29.5681 33.4563 29.5681 30.116C29.5681 26.7758 30.9996 23.5957 33.5 21.381C35.9989 23.5966 37.4292 26.7764 37.4292 30.116C37.4292 33.4557 35.9989 36.6354 33.5 38.8511ZM25.7852 41.7633C19.3535 41.7633 14.1397 36.5495 14.1397 30.1178C14.1397 23.6862 19.3535 18.4723 25.7852 18.4723C28.0407 18.4647 30.2486 19.1215 32.1332 20.3608C29.4298 22.8843 27.8949 26.4166 27.8949 30.1147C27.8949 33.8128 29.4298 37.3451 32.1332 39.8686C30.2493 41.1101 28.0414 41.7691 25.7852 41.7633ZM41.2148 41.7633C38.9611 41.77 36.7552 41.1132 34.8722 39.8748C37.5743 37.3501 39.1081 33.8177 39.1081 30.1196C39.1081 26.4216 37.5743 22.8892 34.8722 20.3644C36.7563 19.1238 38.9643 18.4657 41.2202 18.4723C47.6518 18.4723 52.8657 23.6862 52.8657 30.1178C52.8657 36.5495 47.6518 41.7633 41.2202 41.7633H41.2148Z" fill="#393939"/>
</g>
<defs>
<clipPath id="clip0_434_389">
<rect width="67" height="67" fill="white"/>
</clipPath>
</defs>
</svg>
