<svg width="68" height="68" viewBox="0 0 68 68" fill="none" xmlns="http://www.w3.org/2000/svg">
<g clip-path="url(#clip0_431_386)">
<path d="M63.2051 12.648C65.8488 12.648 68 14.7511 68 17.3361V50.6639C68 53.2489 65.8488 55.352 63.2051 55.352H4.79487C2.15098 55.352 0 53.2489 0 50.6639V17.3361C0 14.7511 2.15098 12.648 4.79487 12.648H63.2051ZM10.6877 34.6067C12.3121 34.6067 13.5871 34.149 14.5129 33.2326C15.4382 32.3165 15.9014 31.0463 15.9014 29.4215C15.9014 28.3071 15.5375 27.4996 14.8104 26.9987C14.0829 26.4986 13.1337 26.248 11.9627 26.248H7.42907C7.07017 26.248 6.87184 26.4275 6.83416 26.7863L4.99245 38.3468C4.97331 38.4604 5.00172 38.5642 5.07741 38.6586C5.15276 38.7533 5.24733 38.8003 5.3607 38.8003H7.51412C7.89182 38.8003 8.09941 38.6211 8.13752 38.262L8.64747 35.1454C8.66609 34.9943 8.73252 34.8715 8.84589 34.777C8.95908 34.6825 9.10086 34.6207 9.27087 34.5925C9.44088 34.5644 9.60119 34.5503 9.75258 34.5503C9.90354 34.5503 10.083 34.5598 10.291 34.5786C10.4986 34.5975 10.631 34.6067 10.6877 34.6067ZM21.9509 32.9774C22.3001 33.2892 22.4751 33.719 22.4751 34.2668C22.4751 34.9658 22.2342 35.5468 21.7525 36.0091C21.2707 36.4726 20.6801 36.7035 19.9816 36.7035C19.4335 36.7035 18.9942 36.5526 18.664 36.2501C18.3332 35.9484 18.168 35.5328 18.168 35.0033C18.168 34.3049 18.4041 33.7142 18.8765 33.2326C19.3484 32.7508 19.9341 32.51 20.6332 32.51C21.1619 32.51 21.6011 32.6659 21.9509 32.9774ZM25.8184 30.8664C25.837 30.7531 25.8088 30.6493 25.7335 30.5548C25.6578 30.4605 25.5635 30.4131 25.4503 30.4131H23.2969C23.0321 30.4131 22.8718 30.7249 22.8151 31.3483C22.3051 30.593 21.4077 30.2148 20.1233 30.2148C18.7632 30.2148 17.6061 30.7249 16.6522 31.745C15.6981 32.7651 15.2213 33.9648 15.2213 35.3436C15.2213 36.4584 15.5472 37.3461 16.199 38.007C16.8507 38.6685 17.7241 38.9987 18.8199 38.9987C19.3485 38.9987 19.8967 38.8852 20.4633 38.6587C21.0299 38.4321 21.4833 38.1299 21.8234 37.752C21.7476 37.9786 21.71 38.177 21.71 38.3468C21.71 38.6494 21.8327 38.8001 22.0783 38.8001H24.0334C24.392 38.8001 24.6001 38.6209 24.6567 38.2618L25.8184 30.8664ZM29.5305 41.7186C29.7382 41.7186 29.908 41.6245 30.0406 41.4355L37.266 31.008C37.3036 30.9705 37.3225 30.9047 37.3225 30.8097C37.3225 30.7155 37.2844 30.6256 37.2094 30.5407C37.1336 30.4557 37.0485 30.413 36.9543 30.413H34.7725C34.5643 30.413 34.3944 30.508 34.2625 30.6963L31.259 35.1168L30.0122 30.8665C29.9175 30.5645 29.7098 30.413 29.389 30.413H27.2635C27.1689 30.413 27.0839 30.4557 27.0088 30.5407C26.933 30.6256 26.8955 30.7156 26.8955 30.8097C26.8955 30.8478 27.0797 31.4048 27.4479 32.4815C27.8162 33.5584 28.2128 34.7202 28.6378 35.967C29.0629 37.2135 29.2847 37.8751 29.3037 37.9501C27.7546 40.066 26.9803 41.1993 26.9803 41.3502C26.9803 41.596 27.103 41.7186 27.3487 41.7186H29.5305ZM42.8759 34.6067C44.5006 34.6067 45.7753 34.149 46.7013 33.2326C47.6268 32.3165 48.0897 31.0463 48.0897 29.4215C48.0898 28.3071 47.7259 27.4996 46.9988 26.9987C46.2714 26.4986 45.3224 26.248 44.1512 26.248H39.6459C39.2679 26.248 39.06 26.4275 39.0225 26.7863L37.1809 38.3468C37.1617 38.4604 37.19 38.5642 37.2658 38.6586C37.3408 38.7533 37.4356 38.8003 37.5491 38.8003H39.8724C40.099 38.8003 40.25 38.6777 40.3257 38.4321L40.8359 35.1454C40.8546 34.9943 40.9207 34.8715 41.0343 34.777C41.1475 34.6825 41.2891 34.6207 41.4592 34.5925C41.6292 34.5644 41.7896 34.5503 41.941 34.5503C42.092 34.5503 42.2714 34.5598 42.4792 34.5786C42.6869 34.5975 42.8196 34.6067 42.8759 34.6067ZM54.1393 32.9774C54.4885 33.2892 54.6635 33.719 54.6636 34.2668C54.6635 34.9468 54.4227 35.5232 53.941 35.9951C53.4594 36.4674 52.8786 36.7035 52.1984 36.7035C51.6504 36.7035 51.2069 36.5526 50.8667 36.2501C50.5266 35.9484 50.3565 35.5328 50.3565 35.0033C50.3565 34.3049 50.5926 33.7142 51.065 33.2326C51.5367 32.7508 52.1228 32.51 52.8218 32.51C53.3502 32.51 53.7895 32.6659 54.1393 32.9774ZM58.007 30.8664C58.0257 30.7531 57.9973 30.6493 57.9218 30.5548C57.846 30.4605 57.7519 30.4131 57.6385 30.4131H55.4849C55.2203 30.4131 55.0601 30.7249 55.0036 31.3483C54.5118 30.593 53.6152 30.2148 52.3115 30.2148C50.9515 30.2148 49.7942 30.7249 48.8406 31.745C47.8865 32.7651 47.4097 33.9648 47.4097 35.3436C47.4097 36.4584 47.7355 37.3461 48.3871 38.007C49.0389 38.6685 49.9125 38.9987 51.0084 38.9987C51.556 38.9987 52.1133 38.8852 52.68 38.6587C53.2467 38.4321 53.6903 38.1299 54.0119 37.752C54.0119 37.7709 53.9927 37.8558 53.9552 38.0068C53.9171 38.1582 53.8984 38.2718 53.8984 38.3468C53.8984 38.6494 54.0209 38.8001 54.2669 38.8001H56.2221C56.5805 38.8001 56.7886 38.6209 56.8452 38.2618L58.007 30.8664ZM63.0224 26.6728L63.0223 26.6447C63.0222 26.3803 62.8991 26.2481 62.6537 26.2481H60.5571C60.3488 26.2481 60.2262 26.352 60.1887 26.5599L58.3468 38.3471L58.3184 38.4037C58.3184 38.4986 58.3563 38.588 58.432 38.6729C58.5072 38.7579 58.602 38.8004 58.7152 38.8004H60.5855C60.944 38.8004 61.1424 38.6212 61.1806 38.262L63.0224 26.6728ZM44.3778 29.1804C44.6047 29.3788 44.7178 29.667 44.7179 30.0447C44.7179 30.8382 44.5099 31.3764 44.0945 31.6599C43.6788 31.9432 43.0555 32.0848 42.2244 32.0848L41.3176 32.1132L41.7994 29.0813C41.8369 28.8737 41.9596 28.7698 42.1677 28.7698H42.6776C43.093 28.7698 43.4236 28.7886 43.6696 28.8263C43.9147 28.8643 44.1512 28.9821 44.3778 29.1804ZM12.133 29.0956C12.4728 29.313 12.5862 29.7712 12.4728 30.4699C12.378 31.1312 12.1327 31.5654 11.7361 31.7733C11.3393 31.9814 10.7726 32.0849 10.036 32.0849L9.10095 32.1132L9.58274 29.0814C9.62042 28.8738 9.74314 28.7698 9.951 28.7698H10.4896C11.2448 28.7698 11.793 28.8787 12.133 29.0956Z" fill="#393939"/>
</g>
<defs>
<clipPath id="clip0_431_386">
<rect width="68" height="68" fill="white"/>
</clipPath>
</defs>
</svg>
