<svg width="68" height="68" viewBox="0 0 171 108" fill="none" xmlns="http://www.w3.org/2000/svg">
<path d="M158.942 0H12.0577C5.40908 0 0 5.28859 0 11.7891V95.5989C0 102.099 5.40908 107.388 12.0577 107.388H158.942C165.59 107.388 171 102.099 171 95.5989V11.7891C171 5.28859 165.59 0 158.942 0Z" fill="white"/>
<path d="M37.2261 36.1283C35.3966 34.8706 33.0093 34.2402 30.0642 34.2402H18.6621C17.7592 34.2402 17.2604 34.6918 17.1656 35.5938L12.5337 64.6695C12.4855 64.955 12.557 65.2162 12.7474 65.4536C12.9366 65.6915 13.1747 65.8097 13.4599 65.8097H18.8758C19.8257 65.8097 20.3478 65.3593 20.4436 64.456L21.7262 56.6175C21.773 56.2376 21.9401 55.9287 22.2252 55.6909C22.5101 55.4534 22.8665 55.2981 23.2941 55.2269C23.7216 55.1563 24.1248 55.1208 24.5056 55.1208C24.8852 55.1208 25.3363 55.1448 25.8598 55.192C26.3819 55.2395 26.7147 55.2626 26.8574 55.2626C30.9429 55.2626 34.1496 54.1114 36.4779 51.8067C38.8051 49.5028 39.97 46.308 39.97 42.2216C39.97 39.4189 39.0547 37.388 37.2261 36.1283ZM31.3471 44.8586C31.1088 46.5217 30.492 47.6138 29.4943 48.1366C28.4965 48.66 27.0713 48.9201 25.2187 48.9201L22.8669 48.9915L24.0786 41.3663C24.1732 40.8441 24.4818 40.5828 25.0048 40.5828H26.3592C28.2586 40.5828 29.6372 40.8566 30.4924 41.402C31.3471 41.9487 31.6323 43.1014 31.3471 44.8586Z" fill="#003087"/>
<path d="M157.554 34.2404H152.281C151.757 34.2404 151.449 34.5017 151.355 35.0243L146.722 64.6696L146.651 64.812C146.651 65.0508 146.746 65.2753 146.936 65.4892C147.125 65.7027 147.364 65.8097 147.649 65.8097H152.353C153.254 65.8097 153.753 65.3592 153.849 64.4559L158.481 35.3088V35.238C158.481 34.573 158.171 34.2404 157.554 34.2404Z" fill="#009CDE"/>
<path d="M93.8448 45.7134C93.8448 45.4765 93.7492 45.2504 93.5604 45.0369C93.3698 44.8232 93.1557 44.7158 92.9189 44.7158H87.4315C86.9079 44.7158 86.4805 44.9546 86.1488 45.4283L78.595 56.5459L75.4596 45.8563C75.2211 45.0966 74.6988 44.7158 73.8918 44.7158H68.5464C68.3083 44.7158 68.0944 44.823 67.9056 45.0369C67.715 45.2504 67.6205 45.4767 67.6205 45.7134C67.6205 45.8093 68.0838 47.2101 69.0099 49.918C69.9361 52.6264 70.934 55.5483 72.003 58.6843C73.0721 61.8194 73.6297 63.4831 73.6776 63.6719C69.7817 68.9933 67.8341 71.844 67.8341 72.2234C67.8341 72.8416 68.1428 73.15 68.7605 73.15H74.2479C74.7704 73.15 75.1978 72.913 75.5306 72.4377L93.7028 46.2123C93.7974 46.1177 93.8448 45.9522 93.8448 45.7134Z" fill="#003087"/>
<path d="M144.941 44.7157H139.524C138.859 44.7157 138.456 45.4996 138.314 47.0675C137.077 45.1681 134.822 44.2167 131.543 44.2167C128.122 44.2167 125.212 45.4996 122.813 48.0651C120.414 50.6309 119.215 53.6481 119.215 57.1158C119.215 59.9194 120.034 62.1521 121.673 63.8143C123.312 65.4782 125.509 66.3086 128.266 66.3086C129.643 66.3086 131.044 66.023 132.469 65.4534C133.895 64.8834 135.01 64.1236 135.819 63.173C135.819 63.2207 135.771 63.4342 135.677 63.8141C135.581 64.1948 135.534 64.4804 135.534 64.6692C135.534 65.4303 135.842 65.8093 136.461 65.8093H141.378C142.28 65.8093 142.803 65.3589 142.945 64.4556L145.867 45.856C145.914 45.5709 145.843 45.3099 145.653 45.0721C145.463 44.8349 145.226 44.7157 144.941 44.7157ZM135.641 58.7547C134.429 59.9425 132.969 60.5361 131.258 60.5361C129.88 60.5361 128.765 60.1566 127.909 59.396C127.054 58.6371 126.626 57.5918 126.626 56.2605C126.626 54.5037 127.22 53.0182 128.408 51.8067C129.594 50.5951 131.068 49.9894 132.826 49.9894C134.155 49.9894 135.26 50.3815 136.14 51.1652C137.018 51.9491 137.458 53.0304 137.458 54.4081C137.458 56.1182 136.852 57.5676 135.641 58.7547Z" fill="#009CDE"/>
<path d="M63.986 44.7157H58.5701C57.904 44.7157 57.501 45.4996 57.3583 47.0675C56.0756 45.1681 53.8187 44.2167 50.5882 44.2167C47.1675 44.2167 44.2572 45.4996 41.8584 48.0651C39.4588 50.6309 38.2597 53.6481 38.2597 57.1158C38.2597 59.9194 39.0794 62.1521 40.7185 63.8143C42.3576 65.4782 44.5543 66.3086 47.3102 66.3086C48.6398 66.3086 50.0184 66.023 51.4434 65.4534C52.8686 64.8834 54.0089 64.1236 54.864 63.173C54.6735 63.7431 54.5789 64.2421 54.5789 64.6692C54.5789 65.4303 54.8876 65.8093 55.5053 65.8093H60.4224C61.3244 65.8093 61.8476 65.3589 61.9903 64.4556L64.9119 45.856C64.9588 45.5709 64.8875 45.3099 64.6982 45.0721C64.5081 44.8349 64.2709 44.7157 63.986 44.7157ZM54.6861 58.79C53.4743 59.9554 51.989 60.5361 50.2323 60.5361C48.8537 60.5361 47.7491 60.1566 46.9184 59.396C46.0865 58.6371 45.6711 57.5918 45.6711 56.2605C45.6711 54.5037 46.2647 53.0182 47.4529 51.8067C48.6398 50.5951 50.1127 49.9894 51.8712 49.9894C53.2008 49.9894 54.3053 50.3815 55.1851 51.1652C56.0634 51.9491 56.5034 53.0304 56.5034 54.4081C56.5034 56.1659 55.8976 57.6273 54.6861 58.79Z" fill="#003087"/>
<path d="M118.181 36.1284C116.352 34.8707 113.965 34.2404 111.019 34.2404H99.6886C98.7378 34.2404 98.215 34.6919 98.1207 35.5939L93.4887 64.6694C93.4406 64.9549 93.5118 65.2161 93.7024 65.4535C93.891 65.6914 94.1298 65.8097 94.4149 65.8097H100.258C100.828 65.8097 101.208 65.5012 101.398 64.8835L102.681 56.6174C102.728 56.2375 102.895 55.9286 103.18 55.6908C103.465 55.4533 103.821 55.298 104.249 55.2268C104.677 55.1562 105.08 55.1207 105.461 55.1207C105.84 55.1207 106.292 55.1447 106.814 55.1919C107.337 55.2394 107.67 55.2625 107.812 55.2625C111.898 55.2625 115.104 54.1113 117.433 51.8066C119.761 49.5027 120.925 46.3079 120.925 42.2216C120.925 39.4191 120.01 37.3881 118.181 36.1284ZM110.877 47.8516C109.831 48.5641 108.264 48.9202 106.174 48.9202L103.893 48.9917L105.105 41.3664C105.199 40.8443 105.507 40.5829 106.031 40.5829H107.313C108.358 40.5829 109.189 40.6304 109.808 40.7251C110.425 40.821 111.019 41.117 111.589 41.6158C112.16 42.1148 112.445 42.8395 112.445 43.7896C112.445 45.7849 111.921 47.1387 110.877 47.8516Z" fill="#009CDE"/>
</svg>
