<svg width="157" height="157" viewBox="0 0 157 157" fill="none" xmlns="http://www.w3.org/2000/svg">
<path d="M91.583 58.8749V32.7083C91.583 27.5034 89.5154 22.5117 85.835 18.8313C82.1546 15.1509 77.1629 13.0833 71.958 13.0833L45.7913 71.9583V143.917H119.581C122.737 143.952 125.798 142.846 128.203 140.803C130.607 138.759 132.192 135.916 132.665 132.796L141.692 73.9208C141.977 72.0456 141.85 70.131 141.322 68.3096C140.793 66.4882 139.874 64.8036 138.63 63.3724C137.385 61.9412 135.844 60.7977 134.114 60.0211C132.384 59.2445 130.505 58.8534 128.609 58.8749H91.583ZM45.7913 143.917H26.1663C22.6964 143.917 19.3686 142.538 16.915 140.085C14.4614 137.631 13.083 134.303 13.083 130.833V85.0416C13.083 81.5717 14.4614 78.2439 16.915 75.7903C19.3686 73.3367 22.6964 71.9583 26.1663 71.9583H45.7913" fill="#381F8C"/>
<path d="M45.7913 71.9583L71.958 13.0833C77.1629 13.0833 82.1546 15.1509 85.835 18.8313C89.5154 22.5117 91.583 27.5034 91.583 32.7083V58.8749H128.609C130.505 58.8534 132.384 59.2445 134.114 60.0211C135.844 60.7977 137.385 61.9412 138.63 63.3724C139.874 64.8036 140.793 66.4882 141.322 68.3096C141.85 70.131 141.977 72.0456 141.692 73.9208L132.665 132.796C132.192 135.916 130.607 138.759 128.203 140.803C125.798 142.846 122.737 143.952 119.581 143.917H45.7913M45.7913 71.9583V143.917M45.7913 71.9583H26.1663C22.6964 71.9583 19.3686 73.3367 16.915 75.7903C14.4614 78.2439 13.083 81.5717 13.083 85.0416V130.833C13.083 134.303 14.4614 137.631 16.915 140.085C19.3686 142.538 22.6964 143.917 26.1663 143.917H45.7913" stroke="white" stroke-width="5" stroke-linecap="round" stroke-linejoin="round"/>
</svg>
