<svg width="157" height="157" viewBox="0 0 157 157" fill="none" xmlns="http://www.w3.org/2000/svg">
<path d="M91.5835 58.875V32.7083C91.5835 27.5034 89.5159 22.5117 85.8355 18.8313C82.1551 15.1509 77.1634 13.0833 71.9585 13.0833L45.7918 71.9583V143.917H119.582C122.737 143.952 125.799 142.846 128.203 140.803C130.607 138.759 132.192 135.916 132.665 132.796L141.693 73.9208C141.977 72.0457 141.851 70.1311 141.322 68.3097C140.793 66.4883 139.875 64.8037 138.63 63.3725C137.386 61.9413 135.845 60.7978 134.115 60.0212C132.384 59.2446 130.506 58.8535 128.609 58.875H91.5835ZM45.7918 143.917H26.1668C22.6969 143.917 19.3691 142.538 16.9155 140.085C14.4619 137.631 13.0835 134.303 13.0835 130.833V85.0416C13.0835 81.5717 14.4619 78.2439 16.9155 75.7903C19.3691 73.3367 22.6969 71.9583 26.1668 71.9583H45.7918" fill="#D21486"/>
<path d="M45.7918 71.9583L71.9585 13.0833C77.1634 13.0833 82.1551 15.1509 85.8355 18.8313C89.5159 22.5117 91.5835 27.5034 91.5835 32.7083V58.875H128.609C130.506 58.8535 132.384 59.2446 134.115 60.0212C135.845 60.7978 137.386 61.9413 138.63 63.3725C139.875 64.8037 140.793 66.4883 141.322 68.3097C141.851 70.1311 141.977 72.0457 141.693 73.9208L132.665 132.796C132.192 135.916 130.607 138.759 128.203 140.803C125.799 142.846 122.737 143.952 119.582 143.917H45.7918M45.7918 71.9583V143.917M45.7918 71.9583H26.1668C22.6969 71.9583 19.3691 73.3367 16.9155 75.7903C14.4619 78.2439 13.0835 81.5717 13.0835 85.0416V130.833C13.0835 134.303 14.4619 137.631 16.9155 140.085C19.3691 142.538 22.6969 143.917 26.1668 143.917H45.7918" stroke="white" stroke-width="5" stroke-linecap="round" stroke-linejoin="round"/>
</svg>
