<svg width="59" height="12" viewBox="0 0 59 12" fill="none" xmlns="http://www.w3.org/2000/svg">
<path d="M3.6624 11V2.74H0.414398V1.2H8.7304V2.74H5.4824V11H3.6624ZM9.75054 11V3.524H11.4165V5.582L11.2205 4.98C11.4445 4.476 11.7945 4.09333 12.2705 3.832C12.7559 3.57067 13.3579 3.44 14.0765 3.44V5.106C14.0019 5.08733 13.9319 5.078 13.8665 5.078C13.8012 5.06867 13.7359 5.064 13.6705 5.064C13.0079 5.064 12.4805 5.26 12.0885 5.652C11.6965 6.03467 11.5005 6.60867 11.5005 7.374V11H9.75054ZM18.7934 11.098C18.1588 11.098 17.5988 10.9813 17.1134 10.748C16.6281 10.5053 16.2501 10.1413 15.9794 9.656C15.7088 9.16133 15.5734 8.54067 15.5734 7.794V3.524H17.3234V7.556C17.3234 8.228 17.4728 8.732 17.7714 9.068C18.0794 9.39467 18.5134 9.558 19.0734 9.558C19.4841 9.558 19.8388 9.474 20.1374 9.306C20.4454 9.138 20.6834 8.886 20.8514 8.55C21.0288 8.214 21.1174 7.79867 21.1174 7.304V3.524H22.8674V11H21.2014V8.984L21.4954 9.6C21.2434 10.0853 20.8748 10.4587 20.3894 10.72C19.9041 10.972 19.3721 11.098 18.7934 11.098ZM27.4687 11.098C26.8434 11.098 26.2414 11.0187 25.6627 10.86C25.0934 10.692 24.6407 10.4913 24.3047 10.258L24.9767 8.928C25.3127 9.14267 25.7141 9.32 26.1807 9.46C26.6474 9.6 27.1141 9.67 27.5807 9.67C28.1314 9.67 28.5281 9.59533 28.7707 9.446C29.0227 9.29667 29.1487 9.096 29.1487 8.844C29.1487 8.63867 29.0647 8.48467 28.8967 8.382C28.7287 8.27 28.5094 8.186 28.2387 8.13C27.9681 8.074 27.6647 8.02267 27.3287 7.976C27.0021 7.92933 26.6707 7.86867 26.3347 7.794C26.0081 7.71 25.7094 7.59333 25.4387 7.444C25.1681 7.28533 24.9487 7.07533 24.7807 6.814C24.6127 6.55267 24.5287 6.20733 24.5287 5.778C24.5287 5.302 24.6641 4.89133 24.9347 4.546C25.2054 4.19133 25.5834 3.92067 26.0687 3.734C26.5634 3.538 27.1467 3.44 27.8187 3.44C28.3227 3.44 28.8314 3.496 29.3447 3.608C29.8581 3.72 30.2827 3.87867 30.6187 4.084L29.9467 5.414C29.5921 5.19933 29.2327 5.05467 28.8687 4.98C28.5141 4.896 28.1594 4.854 27.8047 4.854C27.2727 4.854 26.8761 4.93333 26.6147 5.092C26.3627 5.25067 26.2367 5.45133 26.2367 5.694C26.2367 5.918 26.3207 6.086 26.4887 6.198C26.6567 6.31 26.8761 6.39867 27.1467 6.464C27.4174 6.52933 27.7161 6.58533 28.0427 6.632C28.3787 6.66933 28.7101 6.73 29.0367 6.814C29.3634 6.898 29.6621 7.01467 29.9327 7.164C30.2127 7.304 30.4367 7.50467 30.6047 7.766C30.7727 8.02733 30.8567 8.368 30.8567 8.788C30.8567 9.25467 30.7167 9.66067 30.4367 10.006C30.1661 10.3513 29.7787 10.622 29.2747 10.818C28.7707 11.0047 28.1687 11.098 27.4687 11.098ZM35.1778 11.098C34.3565 11.098 33.7218 10.888 33.2738 10.468C32.8258 10.0387 32.6018 9.40867 32.6018 8.578V1.872H34.3518V8.536C34.3518 8.89067 34.4405 9.166 34.6178 9.362C34.8045 9.558 35.0612 9.656 35.3878 9.656C35.7798 9.656 36.1065 9.55333 36.3678 9.348L36.8578 10.594C36.6525 10.762 36.4005 10.888 36.1018 10.972C35.8032 11.056 35.4952 11.098 35.1778 11.098ZM31.3698 4.98V3.58H36.3538V4.98H31.3698ZM41.5653 11.098C40.7347 11.098 40.0067 10.9347 39.3813 10.608C38.7653 10.272 38.2847 9.81467 37.9393 9.236C37.6033 8.65733 37.4353 7.99933 37.4353 7.262C37.4353 6.51533 37.5987 5.85733 37.9253 5.288C38.2613 4.70933 38.7187 4.25667 39.2973 3.93C39.8853 3.60333 40.5527 3.44 41.2993 3.44C42.0273 3.44 42.676 3.59867 43.2453 3.916C43.8147 4.23333 44.2627 4.68133 44.5893 5.26C44.916 5.83867 45.0793 6.52 45.0793 7.304C45.0793 7.37867 45.0747 7.46267 45.0653 7.556C45.0653 7.64933 45.0607 7.738 45.0513 7.822H38.8213V6.66H44.1273L43.4413 7.024C43.4507 6.59467 43.362 6.21667 43.1753 5.89C42.9887 5.56333 42.732 5.30667 42.4053 5.12C42.088 4.93333 41.7193 4.84 41.2993 4.84C40.87 4.84 40.492 4.93333 40.1653 5.12C39.848 5.30667 39.596 5.568 39.4093 5.904C39.232 6.23067 39.1433 6.618 39.1433 7.066V7.346C39.1433 7.794 39.246 8.19067 39.4513 8.536C39.6567 8.88133 39.946 9.14733 40.3193 9.334C40.6927 9.52067 41.122 9.614 41.6073 9.614C42.0273 9.614 42.4053 9.54867 42.7413 9.418C43.0773 9.28733 43.376 9.082 43.6373 8.802L44.5753 9.88C44.2393 10.272 43.8147 10.5753 43.3013 10.79C42.7973 10.9953 42.2187 11.098 41.5653 11.098ZM49.9243 11.098C49.2056 11.098 48.557 10.9393 47.9783 10.622C47.409 10.2953 46.961 9.84733 46.6343 9.278C46.3076 8.70867 46.1443 8.03667 46.1443 7.262C46.1443 6.48733 46.3076 5.81533 46.6343 5.246C46.961 4.67667 47.409 4.23333 47.9783 3.916C48.557 3.59867 49.2056 3.44 49.9243 3.44C50.5496 3.44 51.1096 3.58 51.6043 3.86C52.099 4.13067 52.491 4.546 52.7803 5.106C53.0696 5.666 53.2143 6.38467 53.2143 7.262C53.2143 8.13 53.0743 8.84867 52.7943 9.418C52.5143 9.978 52.127 10.398 51.6323 10.678C51.1376 10.958 50.5683 11.098 49.9243 11.098ZM50.1343 9.6C50.5543 9.6 50.9276 9.50667 51.2543 9.32C51.5903 9.13333 51.8563 8.86267 52.0523 8.508C52.2576 8.15333 52.3603 7.738 52.3603 7.262C52.3603 6.77667 52.2576 6.36133 52.0523 6.016C51.8563 5.66133 51.5903 5.39067 51.2543 5.204C50.9276 5.01733 50.5543 4.924 50.1343 4.924C49.7143 4.924 49.3363 5.01733 49.0003 5.204C48.6736 5.39067 48.4076 5.66133 48.2023 6.016C48.0063 6.36133 47.9083 6.77667 47.9083 7.262C47.9083 7.738 48.0063 8.15333 48.2023 8.508C48.4076 8.86267 48.6736 9.13333 49.0003 9.32C49.3363 9.50667 49.7143 9.6 50.1343 9.6ZM52.4023 11V9.236L52.4723 7.248L52.3323 5.26V0.611999H54.0683V11H52.4023ZM56.9316 5.764C56.6143 5.764 56.3436 5.65667 56.1196 5.442C55.8956 5.218 55.7836 4.938 55.7836 4.602C55.7836 4.24733 55.8956 3.96733 56.1196 3.762C56.3436 3.54733 56.6143 3.44 56.9316 3.44C57.249 3.44 57.5196 3.54733 57.7436 3.762C57.9676 3.96733 58.0796 4.24733 58.0796 4.602C58.0796 4.938 57.9676 5.218 57.7436 5.442C57.5196 5.65667 57.249 5.764 56.9316 5.764ZM56.9316 11.098C56.6143 11.098 56.3436 10.9907 56.1196 10.776C55.8956 10.552 55.7836 10.272 55.7836 9.936C55.7836 9.58133 55.8956 9.30133 56.1196 9.096C56.3436 8.88133 56.6143 8.774 56.9316 8.774C57.249 8.774 57.5196 8.88133 57.7436 9.096C57.9676 9.30133 58.0796 9.58133 58.0796 9.936C58.0796 10.272 57.9676 10.552 57.7436 10.776C57.5196 10.9907 57.249 11.098 56.9316 11.098Z" fill="#969696"/>
</svg>
