<svg width="130" height="130" viewBox="0 0 130 130" fill="none" xmlns="http://www.w3.org/2000/svg">
<path fill-rule="evenodd" clip-rule="evenodd" d="M0 0H130V130H0V0Z" fill="white"/>
<path fill-rule="evenodd" clip-rule="evenodd" d="M128.089 34.267C128.089 28.2065 124.939 25.2 118.83 25.2H11.17C8.11617 25.2 5.87303 26.0113 4.39333 27.6812C2.72345 29.3517 1.91144 31.4991 1.91144 34.267V95.733C1.91144 98.5008 2.72345 100.6 4.39333 102.318C6.11177 103.989 8.30704 104.8 11.17 104.8H118.83C124.939 104.8 128.089 101.747 128.089 95.7336V34.267ZM118.83 26.6318C123.888 26.6318 126.465 29.2087 126.465 34.267V95.733C126.465 100.838 123.888 103.367 118.83 103.367H11.17C8.73597 103.367 6.87523 102.652 5.4913 101.22C4.05949 99.8355 3.34392 97.9269 3.34392 95.7323V34.267C3.34392 29.2087 5.87303 26.6318 11.17 26.6318H118.83Z" fill="#315881"/>
<path fill-rule="evenodd" clip-rule="evenodd" d="M12.0285 30.1631C9.97687 30.1631 8.68804 30.4969 7.97247 31.2132C7.352 32.0245 7.06604 33.3605 7.06604 35.3171V48.6309H122.934V35.3171C122.934 31.8336 121.215 30.1631 117.779 30.1631H12.0285Z" fill="#315881"/>
<path fill-rule="evenodd" clip-rule="evenodd" d="M7.06604 94.492C7.06604 98.022 8.73592 99.8362 12.0285 99.8362H117.779C121.215 99.8362 122.934 98.0227 122.934 94.492V81.1775H7.06604V94.492Z" fill="#DFA43B"/>
<path fill-rule="evenodd" clip-rule="evenodd" d="M45.4341 54.3103C45.4341 54.9308 45.3383 55.4076 45.1002 55.7421L36.7488 70.2976L36.2234 52.5447H22.8616L27.3473 54.692C28.6354 55.5034 29.3038 56.5528 29.3038 57.8895L30.544 76.7404H37.0819L52.7354 52.5447H44.7185C45.1953 52.9743 45.4341 53.642 45.4341 54.3103ZM99.4557 53.2602L99.9798 52.544H91.8192C92.1051 52.8299 92.2009 52.9736 92.2009 53.0687C92.1045 53.4497 91.9136 53.6892 91.8192 53.9751L79.9364 75.6404C79.6505 76.0222 79.3632 76.3567 79.03 76.7391H85.7588L85.4243 76.0228C85.4243 75.4024 85.7588 74.2579 86.4743 72.6352L87.9061 69.9624H94.8258C95.1131 72.2056 95.3039 74.067 95.399 75.4516L94.8258 76.7398H103.177L101.936 74.9262L99.4557 53.2602ZM94.4919 66.5748H89.5288L93.7757 58.4142L94.4919 66.5748ZM73.876 51.3037C71.2997 51.3037 69.1038 52.02 67.1473 53.4511C64.9992 54.692 63.9498 56.2668 63.9498 58.224C63.9498 60.4672 64.7132 62.4237 66.2402 63.9027L70.8701 67.0995C72.5407 68.2932 73.352 69.3426 73.352 70.2976C73.352 71.2041 72.921 72.0154 72.111 72.6359C71.2997 73.2563 70.3919 73.5423 69.2474 73.5423C67.5769 73.5423 64.7139 72.3499 60.753 70.1546V74.5924C63.8547 76.4538 66.862 77.4088 69.7721 77.4088C72.5407 77.4088 74.8789 76.6447 76.884 74.9269C79.0313 73.3514 80.0808 71.4914 80.0808 69.4391C80.0808 67.72 79.3166 66.1458 77.5989 64.4753L73.1598 61.2778C71.6821 60.0848 70.8701 59.0347 70.8701 58.224C70.8701 56.3633 71.9674 55.4083 74.2105 55.4083C75.7374 55.4083 77.9806 56.2675 80.9865 58.081L81.8943 53.4518C79.3638 52.0193 76.7396 51.3037 73.876 51.3037ZM56.1237 76.7398C56.028 75.7376 55.8371 74.8311 55.7413 73.8761L61.8024 54.3103L63.2342 52.5447H54.5011C54.5968 52.9743 54.6919 53.5469 54.7877 53.9765C54.7877 54.4061 54.7877 54.9315 54.6919 55.4083L48.6315 74.7832L47.3906 76.7404L56.1237 76.7398Z" fill="#315881"/>
</svg>
