<svg width="122" height="122" viewBox="0 0 122 122" fill="none" xmlns="http://www.w3.org/2000/svg">
<path d="M74.8467 47.9839C73.7468 47.9839 73.0986 48.5927 73.0986 49.948V55.1526C73.0986 56.5075 73.7468 57.1163 74.8467 57.1163C75.9466 57.1163 76.614 56.5075 76.614 55.1526V49.948C76.6138 48.5927 75.9466 47.9839 74.8467 47.9839Z" fill="black"/>
<path d="M111.151 20.6392H107.886C107.886 11.7711 101.686 6.8291 95.0992 6.8291C88.6017 6.8291 82.312 11.6715 82.312 20.6392H39.6882C39.6882 11.7711 33.4874 6.8291 26.9011 6.8291C20.4036 6.8291 14.1139 11.6715 14.1139 20.6392H10.8494C4.86714 20.6392 0 25.5063 0 31.4889V75.582C0 81.5645 4.86714 86.4316 10.8497 86.4316H14.1139V110.521C14.1139 113.089 16.1958 115.171 18.7637 115.171H35.0381C37.6061 115.171 39.688 113.089 39.688 110.521V86.4316H82.3118V110.521C82.3118 113.089 84.3937 115.171 86.9616 115.171H103.236C105.804 115.171 107.886 113.089 107.886 110.521V86.4316H111.15C117.133 86.4316 122 81.5645 122 75.582V31.4889C122 25.5063 117.133 20.6392 111.151 20.6392ZM30.3883 20.6392H23.4136C23.4136 14.6064 30.3883 14.5242 30.3883 20.6392ZM30.3883 105.871H23.4136V86.4316H30.3883V105.871ZM31.6757 46.7863L27.7677 58.7662C27.2825 60.1804 24.0603 60.0746 23.761 58.7662L22.7399 54.1116L21.7184 58.7662C21.4149 60.0932 18.1502 60.1611 17.7122 58.7662L13.8039 46.7863C13.3993 45.5756 16.3859 44.6792 16.7302 45.883L19.7154 55.958L21.2669 49.32C21.5047 48.2494 23.9752 48.2501 24.2128 49.32L25.7642 55.958L28.7494 45.883C29.0921 44.6821 32.0756 45.5708 31.6757 46.7863ZM40.4166 51.3032C41.6278 51.3032 41.6652 53.66 40.4166 53.66H37.4708V56.9988H42.7342C43.9484 56.9988 43.9863 59.6697 42.7342 59.6697H35.7427C35.0751 59.6697 34.4069 59.3554 34.4069 58.7271V46.2561C34.4069 45.6278 35.0746 45.3135 35.7427 45.3135H42.7342C43.987 45.3135 43.9477 47.9844 42.7342 47.9844H37.4708V51.3032H40.4166ZM54.1057 59.6695H47.8996C47.232 59.6695 46.5638 59.3552 46.5638 58.7269V46.2361C46.5638 45.588 47.3299 45.3133 48.0955 45.3133C48.8618 45.3133 49.6274 45.5882 49.6274 46.2361V56.9984H54.105C55.2845 56.9986 55.2845 59.6695 54.1057 59.6695ZM62.2766 57.1163C63.8476 57.1163 63.9462 55.9185 64.0048 55.1524C64.0637 54.4259 64.7318 54.2293 65.5172 54.2293C66.5778 54.2293 67.0687 54.5043 67.0687 55.6828C67.0687 60.8714 57.4259 61.7585 57.4259 55.1526V49.9483C57.4259 43.3279 67.0687 44.3115 67.0687 49.2218C67.0687 50.4001 66.5776 50.6751 65.537 50.6751C64.7121 50.6751 64.0442 50.459 64.0051 49.7522C63.9853 49.2416 63.9267 47.9846 62.2573 47.9846C61.1378 47.9846 60.4897 48.613 60.4897 49.9488V55.1531C60.4895 56.488 61.1376 57.1163 62.2766 57.1163ZM79.6778 55.1526C79.6778 58.5303 77.5566 59.7872 74.8467 59.7872C72.1365 59.7872 70.0346 58.5303 70.0346 55.1526V49.9481C70.0346 46.5702 72.136 45.313 74.8467 45.313C77.5566 45.313 79.6778 46.57 79.6778 49.9481V55.1526ZM88.1433 54.5831L86.2778 51.1657V58.7271C86.2778 59.984 83.2137 59.984 83.2137 58.7271V46.8452C83.2137 45.7257 83.9798 45.3135 84.7456 45.3135C85.845 45.3135 86.3166 45.4312 87.1217 46.8452L89.1448 50.3803L91.1675 46.8452C91.9729 45.431 92.4438 45.3135 93.5439 45.3135C94.3291 45.3135 95.0756 45.7262 95.0756 46.8452V58.7271C95.0756 59.984 92.0115 59.984 92.0115 58.7271V51.3623L90.1262 54.5831C89.688 55.3256 88.556 55.3742 88.1433 54.5831ZM98.5864 105.871H91.6117V86.4316H98.5864V105.871ZM91.6115 20.6392C91.6115 14.6064 98.5862 14.5244 98.5862 20.6392H91.6115ZM104.779 51.3032C105.99 51.3032 106.027 53.66 104.779 53.66H101.833V56.9988H107.096C108.31 56.9988 108.348 59.6697 107.096 59.6697H100.105C99.4371 59.6697 98.769 59.3554 98.769 58.7271V46.2561C98.769 45.6278 99.4366 45.3135 100.105 45.3135H107.096C108.349 45.3135 108.31 47.9844 107.096 47.9844H101.833V51.3032H104.779Z" fill="black"/>
</svg>
